<svg width="144" height="233" viewBox="0 0 144 233" fill="none" xmlns="http://www.w3.org/2000/svg">
<path d="M99.1714 206.05C99.1109 205.675 99.0891 205.249 99.0981 204.793C96.646 206.275 94.3032 208.156 92.0477 210.465C89.2011 213.38 86.758 216.646 84.5566 220.08C83.1005 222.353 81.7498 224.697 80.4582 227.064C79.5522 228.724 78.6474 230.492 78.677 232.385C78.6795 232.555 78.6937 232.726 78.713 232.898H144C143.981 232.789 143.96 232.681 143.94 232.573C142.883 227.09 141.787 221.559 139.533 216.451C137.29 211.372 133.778 206.679 128.915 204.015C129.067 204.548 129.118 204.906 129.118 204.906L99.1714 206.05Z" fill="#7E8FAB"/>
<path d="M99.8958 87.3966C99.8958 87.3953 99.8945 87.3953 99.8945 87.3953C100.847 87.1817 102.14 86.703 103.318 86.0788L99.8431 79.7682C100.188 79.5185 100.437 79.1183 100.536 78.6975C100.685 78.0708 100.568 77.4133 100.419 76.7866C101.032 76.9616 102.101 76.8483 103.053 76.8972L103.092 76.95C102.398 77.8752 101.247 78.7927 101.969 79.8428C102.195 80.1735 102.624 80.3151 103.025 80.2971C103.425 80.2816 103.805 80.1311 104.178 79.9831C103.6 80.2636 103.145 80.7874 102.945 81.3999C102.888 81.5749 102.85 81.7576 102.863 81.9416C102.893 82.3985 103.235 82.7987 103.659 82.9698C104.083 83.1397 104.57 83.1037 104.998 82.9441C105.67 82.6944 106.206 82.136 106.463 81.4681L106.786 81.8992C106.804 81.8747 106.822 81.8503 106.84 81.8258C107.545 80.8568 107.844 79.3898 107.019 78.5212C106.796 78.287 106.496 78.1017 106.379 77.7993C106.158 77.2267 106.689 76.6695 106.91 76.0968C107.276 75.1523 106.609 73.9555 105.613 73.7715C105.409 73.7342 105.171 73.7187 105.048 73.5502C104.889 73.3314 105.036 73.0328 105.133 72.7793C105.434 71.9866 105.098 71.0009 104.376 70.5583C103.573 70.0654 102.524 70.3125 101.947 71.0215C101.383 71.7151 101.178 72.2144 100.504 72.428C100.387 72.3688 100.272 72.3135 100.167 72.2672C99.9292 72.1642 99.6761 72.0793 99.4216 72.0278C99.1042 71.9635 98.7829 71.9545 98.4796 72.0574C97.7136 72.3161 97.1147 73.2516 96.7523 74.155C96.6804 74.3364 96.6174 74.514 96.5647 74.6864C95.7538 76.1058 94.858 78.0554 94.4044 80.0011C94.4031 79.9985 94.4018 79.9972 94.4005 79.9959L87.6123 84.6376C87.9336 89.314 88.2163 93.9942 88.4836 98.6744C92.6373 94.8924 96.7806 90.5146 99.8958 87.3966Z" fill="white"/>
<path d="M101.783 196.397L100.878 196.434C100.878 196.434 99.1662 201.467 99.0981 204.792C99.0891 205.249 99.111 205.675 99.1714 206.05L129.118 204.906C129.118 204.906 129.067 204.548 128.915 204.015C128.553 202.74 127.595 200.436 125.265 199.452C122.712 198.375 113.671 196.536 109.688 195.755L108.878 197.06C108.878 197.06 103.036 199.648 101.783 196.397Z" fill="#13182D"/>
<path d="M101.627 195.874C101.666 196.065 101.719 196.236 101.782 196.397C103.035 199.648 108.878 197.06 108.878 197.06L109.687 195.755L110.516 194.419L102.712 193.932L101.627 195.874Z" fill="white"/>
<path d="M73.3164 42.4165C72.2857 40.9546 71.7292 39.0836 71.6765 37.2588C71.656 36.5344 71.7112 35.8176 71.8179 35.1098C73.0581 34.8795 74.2751 34.5359 75.3881 34.1318C76.8853 33.5875 78.4082 32.7858 79.1703 31.3844C79.7807 30.2623 79.8116 28.9201 79.7563 27.6436C79.5648 23.1975 78.5046 18.7708 76.6655 14.7134C77.6024 14.9039 78.5418 15.0827 79.4851 15.2397C79.1523 15.4469 78.7796 15.7171 78.759 16.1186C78.714 16.9461 79.2371 16.9435 79.8424 17.2034C80.4721 17.475 81.5787 17.4685 82.2585 17.5483C84.2865 17.7864 86.9673 18.0502 89.1714 17.7748C89.6417 18.6614 90.9243 19.5365 91.5849 20.2043C93.6116 22.2491 95.529 24.3969 97.4143 26.5703C99.3241 28.7721 101.202 31.0035 103.12 33.1976C103.277 33.2374 103.433 33.2774 103.59 33.3172C106.777 34.1254 109.965 34.9348 113.154 35.7442C113.253 35.7687 113.353 35.7944 113.453 35.8201C113.809 35.9102 113.674 36.3864 113.349 36.3864C113.331 36.3864 113.314 36.3915 113.296 36.3876C112.778 36.3053 112.259 36.2229 111.741 36.1406C111.611 36.12 111.55 36.0363 111.534 35.9411C108.564 35.187 105.592 34.4329 102.621 33.6788C102.54 33.6583 102.488 33.6132 102.455 33.5579C100.721 33.9452 98.9912 34.3493 97.2653 34.7701C101.109 39.386 104.345 44.3725 106.935 49.6871C110.671 47.4648 114.15 45.2167 116.917 43.1049C118.254 42.2595 119.577 40.9495 120.644 40.014C122.867 38.0644 125.019 35.196 123.025 32.3894C121.208 29.8325 118.269 28.1338 115.791 26.3001C111.654 23.2374 107.295 20.4772 102.758 18.0463C100.062 16.6012 97.2074 14.631 94.1719 13.6749C93.1001 13.3378 92.0064 13.128 90.8883 13.1113C90.8729 13.1113 90.8575 13.1126 90.8421 13.1126C89.8011 12.6184 88.7884 12.4074 87.5289 12.1114C86.2181 11.8038 84.8725 11.6507 83.6221 11.5671C80.8577 11.3805 77.9815 11.3663 75.2454 11.9866C74.6118 11.0729 73.779 10.3484 72.828 9.80667C73.9037 11.0356 74.7583 12.4614 75.3264 13.9941C75.7595 15.1586 75.9445 16.6707 74.9922 17.4698C73.9333 16.8779 72.81 16.0466 71.6752 15.6734C71.7048 18.35 72.4797 21.0485 72.4116 23.8036C72.3898 24.6581 72.5427 29.2573 71.2023 28.8017C70.8926 28.6962 70.6613 28.444 70.4248 28.2175C69.7629 27.5805 68.7952 27.0645 67.9547 27.4325C67.4458 27.6564 67.1374 28.1557 67.032 28.7091C66.969 29.0321 66.9767 29.3718 67.0513 29.6858C67.3019 30.732 68.3403 31.2828 68.8505 32.1964C69.3658 33.1178 69.6421 34.1756 69.6344 35.2334C69.6331 35.2823 69.6293 35.3324 69.6267 35.3813C69.6113 35.7275 69.5483 36.0788 69.3324 36.3426C68.907 36.8663 68.0819 36.8329 67.4638 36.5626C66.8456 36.2924 66.311 35.8407 65.6671 35.64C65.752 36.4391 65.6363 37.309 65.1094 37.9151C64.1958 38.9691 62.4037 38.7567 61.3468 37.8482C61.2475 37.762 61.1574 37.6693 61.0673 37.5754C60.9474 39.7051 60.7197 41.822 60.4546 43.9298C60.3616 44.6659 60.2649 45.4007 60.168 46.1342C64.0048 44.3957 68.3236 43.4305 72.5697 42.8476C72.801 42.7035 73.0504 42.5593 73.3164 42.4165Z" fill="white"/>
<path d="M65.1096 37.9151C65.6365 37.309 65.7521 36.4391 65.6673 35.6399C66.3112 35.8407 66.8458 36.2923 67.464 36.5626C68.0821 36.8328 68.9072 36.8663 69.3326 36.3425C69.5485 36.0787 69.6115 35.7274 69.6269 35.3813C69.6295 35.3324 69.6333 35.2822 69.6346 35.2333C69.6423 34.1755 69.366 33.1177 68.8507 32.1963C68.3404 31.2827 67.302 30.7319 67.0514 29.6857C66.9769 29.3717 66.9692 29.032 67.0322 28.709C67.1375 28.1557 67.446 27.6564 67.9549 27.4324C68.7954 27.0644 69.7631 27.5804 70.425 28.2174C70.6614 28.4439 70.8928 28.6961 71.2025 28.8017C72.5429 29.2572 72.39 24.658 72.4118 23.8036C72.4799 21.0484 71.705 18.3499 71.6754 15.6733C72.8102 16.0465 73.9334 16.8778 74.9924 17.4697C75.9447 16.6706 75.7597 15.1586 75.3266 13.994C74.7585 12.4614 73.9039 11.0355 72.8282 9.8066C72.6431 9.59428 72.4529 9.3871 72.2537 9.18764C73.377 9.90312 74.7264 10.2544 76.0552 10.1734C76.505 10.1463 77.0075 10.0357 77.2466 9.65347C77.5627 9.14645 77.2363 8.49145 76.8867 8.00631C75.3844 5.91777 73.332 4.22944 70.9956 3.15879C71.6369 3.15236 72.2782 3.1472 72.9195 3.14205C73.0865 3.13948 73.2665 3.13564 73.4052 3.04169C73.7535 2.80749 73.5942 2.26058 73.3526 1.91699C70.308 -2.42352 64.2254 1.6622 61.2206 3.83953C61.2275 3.00824 62.2192 2.39698 62.136 1.56955C62.0834 1.04451 61.5774 0.652031 61.0558 0.577396C60.5349 0.502758 60.0102 0.68034 59.5343 0.906822C57.2677 1.9852 55.7062 4.12519 54.4094 6.27679C52.4522 9.52478 50.8618 13.0224 50.0059 16.7182C49.7228 17.9381 49.5199 19.1941 49.6414 20.4411C49.7985 22.0599 50.4904 23.5732 51.2068 25.0338C52.3269 27.3205 53.5298 29.5673 54.8146 31.7653C55.3324 32.6519 55.7601 33.6196 56.4426 34.3814C56.5934 34.55 58.8507 36.2216 58.9583 35.7686C59.0791 35.2603 59.2 34.7533 59.3208 34.245C59.7412 35.4366 60.2 36.6758 61.0675 37.5753C61.1576 37.6693 61.2477 37.7619 61.347 37.8481C62.4039 38.7566 64.196 38.969 65.1096 37.9151Z" fill="#707070"/>
<path d="M27.8705 223.378H26.4705L26.4066 223.371C25.6206 223.826 20.4 226.696 19.1648 223.093L19.1845 223.027C15.3131 223.95 6.16451 226.196 3.62723 227.392C0.381951 228.922 0 233 0 233H28.734C29.1153 229.877 27.8705 223.378 27.8705 223.378Z" fill="#13182D"/>
<path d="M26.4064 223.371C26.4708 223.332 26.5092 223.309 26.5092 223.309L27.5043 220.492H19.9502L19.1843 223.027L19.1646 223.093C20.3998 226.696 25.6204 223.826 26.4064 223.371Z" fill="white"/>
<path d="M29.1793 220.492C31.5286 214.233 48.118 176.841 48.118 176.841C48.118 176.841 63.2232 156.886 72.0584 145.111C70.0253 145.864 67.8675 146.217 65.693 146.128C65.3152 146.113 65.3139 145.523 65.693 145.539C67.8906 145.629 70.0883 145.262 72.1342 144.455C66.7494 144.252 61.4159 142.997 56.4813 140.73C56.1376 140.571 56.437 140.063 56.7788 140.22C61.8673 142.558 67.4061 143.792 72.976 143.889C75.847 143.938 78.7271 143.691 81.5583 143.126C81.9284 143.052 82.0865 143.62 81.7151 143.695C78.8209 144.272 75.8817 144.523 72.9516 144.472C72.9567 144.482 72.9606 144.492 72.9644 144.503C88.7886 147.877 115.273 153.976 115.273 153.976L100.259 193.778L102.712 193.932L110.517 194.419L117.009 194.826C122.264 185.477 140.059 145.201 140.059 145.201L88.7423 117.448C88.5071 117.76 88.2282 118.045 87.9404 118.312C84.4653 121.535 79.4648 122.934 74.4257 123.592C71.2269 124.01 68.0127 124.132 65.1623 124.226C59.6245 124.407 53.8691 124.459 48.396 123.745C48.3797 123.083 48.3704 122.421 48.355 121.759L48.1938 128.323L25.6797 175.095L12.0532 220.492H19.9505H27.5046H29.1793Z" fill="black"/>
<path d="M65.1623 124.226C68.0128 124.132 71.2269 124.01 74.4257 123.592C79.4648 122.934 84.4653 121.535 87.9404 118.312C88.2283 118.045 88.5071 117.76 88.7423 117.448C88.9569 117.164 89.1356 116.859 89.2435 116.52C89.4247 115.946 89.3952 115.33 89.363 114.728C89.0803 109.376 88.7912 104.025 88.484 98.6745C88.2167 93.9942 87.934 89.314 87.6127 84.6376C87.3916 81.4218 87.1552 78.206 86.8968 74.9927C86.5704 70.9521 86.2093 66.9037 85.4048 62.9299C85.3032 62.428 85.194 61.9287 85.0783 61.4307C90.9258 58.4955 99.44 54.1459 106.935 49.687C104.345 44.3724 101.109 39.3859 97.2655 34.77C96.5843 34.9373 95.9019 35.102 95.2221 35.2744C91.5041 36.2125 87.808 37.2343 84.135 38.3358C81.4067 39.1542 76.3573 40.7692 73.3166 42.4164C73.0506 42.5592 72.8013 42.7033 72.5699 42.8475C68.3238 43.4304 64.005 44.3955 60.1682 46.1341C55.4621 48.2689 51.4813 51.5684 49.2539 56.7685C48.9689 57.4338 48.7322 58.1248 48.5364 58.8378C47.0034 64.4291 47.9828 71.3445 47.9508 76.9616C47.9096 84.4587 47.9221 91.9572 47.9884 99.4556C48.0552 106.89 48.1815 114.325 48.355 121.759C48.3704 122.421 48.3797 123.083 48.396 123.745C53.8691 124.459 59.6246 124.407 65.1623 124.226Z" fill="#13182D"/>
<path d="M81.715 143.695C82.0864 143.62 81.9283 143.052 81.5582 143.126C78.727 143.691 75.847 143.938 72.9759 143.889C67.4061 143.792 61.8672 142.558 56.7787 140.22C56.4369 140.063 56.1376 140.571 56.4812 140.73C61.4158 142.997 66.7494 144.252 72.1342 144.455C70.0882 145.262 67.8906 145.629 65.693 145.539C65.3138 145.523 65.3151 146.113 65.693 146.128C67.8675 146.217 70.0252 145.864 72.0583 145.111C72.3179 145.016 72.575 144.916 72.8294 144.808C72.9772 144.745 73.0042 144.619 72.9644 144.503C72.9605 144.492 72.9567 144.482 72.9515 144.472C75.8817 144.523 78.8208 144.272 81.715 143.695Z" fill="#090A0C"/>
<path d="M98.4796 72.0575C98.7829 71.9545 99.1042 71.9635 99.4216 72.0279L95.3194 66.5292L93.6512 62.3315L89.7495 64.6736L93.2284 67.7556L96.7523 74.155C97.1147 73.2517 97.7136 72.3161 98.4796 72.0575Z" fill="#CCCCCC"/>
<path d="M104.998 82.944C104.57 83.1036 104.083 83.1396 103.659 82.9697C103.235 82.7986 102.893 82.3984 102.863 81.9416C102.851 81.7575 102.888 81.5748 102.946 81.3998C103.145 80.7873 103.6 80.2635 104.178 79.983C103.805 80.131 103.425 80.2815 103.025 80.297C102.624 80.315 102.195 80.1734 101.969 79.8427C101.247 78.7927 102.398 77.8751 103.092 76.9499L103.054 76.8971C102.101 76.8482 101.032 76.9615 100.419 76.7865C100.568 77.4132 100.685 78.0707 100.536 78.6974C100.437 79.1182 100.188 79.5184 99.8433 79.7681L103.318 86.0788L115.134 107.537L114.21 108.07L118.577 117.231L130.034 110.511L123.89 102.478L122.665 103.186L106.786 81.8991L106.463 81.468C106.206 82.1359 105.67 82.6944 104.998 82.944Z" fill="#CCCCCC"/>
</svg>
