<svg width="50" height="50" viewBox="0 0 50 50" fill="none" xmlns="http://www.w3.org/2000/svg">
<path d="M33.457 5.11232C34.0429 5.69835 34.3721 6.49311 34.3721 7.32179C34.3721 8.15048 34.0429 8.94523 33.457 9.53127L17.9883 25L33.457 40.4688C34.0084 41.061 34.3085 41.844 34.2943 42.6531C34.28 43.4621 33.9525 44.2341 33.3807 44.8066C32.8088 45.379 32.0372 45.7074 31.2282 45.7225C30.4192 45.7377 29.6358 45.4384 29.043 44.8877L11.3623 27.2119C10.7764 26.6259 10.4472 25.8311 10.4472 25.0025C10.4472 24.1738 10.7764 23.379 11.3623 22.793L29.0381 5.11232C29.6241 4.52641 30.4189 4.19727 31.2476 4.19727C32.0762 4.19727 32.871 4.52641 33.457 5.11232Z" fill="black"/>
</svg>
