<svg width="50" height="50" viewBox="0 0 50 50" fill="none" xmlns="http://www.w3.org/2000/svg">
<path d="M16.543 5.11232C15.9571 5.69835 15.6279 6.49311 15.6279 7.32179C15.6279 8.15048 15.9571 8.94523 16.543 9.53127L32.0117 25L16.543 40.4688C15.9916 41.061 15.6915 41.844 15.7057 42.6531C15.72 43.4621 16.0475 44.2341 16.6193 44.8066C17.1912 45.379 17.9628 45.7074 18.7718 45.7225C19.5808 45.7377 20.3642 45.4384 20.957 44.8877L38.6377 27.2119C39.2236 26.6259 39.5528 25.8311 39.5528 25.0025C39.5528 24.1738 39.2236 23.379 38.6377 22.793L20.9619 5.11232C20.3759 4.52641 19.5811 4.19727 18.7524 4.19727C17.9238 4.19727 17.129 4.52641 16.543 5.11232Z" fill="black"/>
</svg>
