<svg width="50" height="50" viewBox="0 0 50 50" fill="none" xmlns="http://www.w3.org/2000/svg">
<path d="M8.33333 8.33335H14.5833L18.75 4.16669H31.25L35.4167 8.33335H41.6667C42.7717 8.33335 43.8315 8.77234 44.6129 9.55374C45.3943 10.3351 45.8333 11.395 45.8333 12.5V37.5C45.8333 38.6051 45.3943 39.6649 44.6129 40.4463C43.8315 41.2277 42.7717 41.6667 41.6667 41.6667H8.33333C7.22826 41.6667 6.16845 41.2277 5.38705 40.4463C4.60565 39.6649 4.16666 38.6051 4.16666 37.5V12.5C4.16666 11.395 4.60565 10.3351 5.38705 9.55374C6.16845 8.77234 7.22826 8.33335 8.33333 8.33335ZM25 14.5834C22.2373 14.5834 19.5878 15.6808 17.6343 17.6343C15.6808 19.5878 14.5833 22.2373 14.5833 25C14.5833 27.7627 15.6808 30.4122 17.6343 32.3657C19.5878 34.3192 22.2373 35.4167 25 35.4167C27.7627 35.4167 30.4122 34.3192 32.3657 32.3657C34.3192 30.4122 35.4167 27.7627 35.4167 25C35.4167 22.2373 34.3192 19.5878 32.3657 17.6343C30.4122 15.6808 27.7627 14.5834 25 14.5834ZM25 18.75C26.6576 18.75 28.2473 19.4085 29.4194 20.5806C30.5915 21.7527 31.25 23.3424 31.25 25C31.25 26.6576 30.5915 28.2473 29.4194 29.4194C28.2473 30.5915 26.6576 31.25 25 31.25C23.3424 31.25 21.7527 30.5915 20.5806 29.4194C19.4085 28.2473 18.75 26.6576 18.75 25C18.75 23.3424 19.4085 21.7527 20.5806 20.5806C21.7527 19.4085 23.3424 18.75 25 18.75Z" fill="black"/>
</svg>
