<svg width="50" height="50" viewBox="0 0 50 50" fill="none" xmlns="http://www.w3.org/2000/svg">
<path d="M16.6667 43.75C15.5208 43.75 14.5403 43.3424 13.725 42.5271C12.9097 41.7118 12.5014 40.7306 12.5 39.5833V35.4167H8.33332C7.18749 35.4167 6.20693 35.009 5.39166 34.1937C4.57638 33.3785 4.16805 32.3972 4.16666 31.25V22.9167C4.16666 21.1458 4.7743 19.6618 5.98957 18.4646C7.20485 17.2674 8.68055 16.6681 10.4167 16.6667H39.5833C41.3542 16.6667 42.8389 17.266 44.0375 18.4646C45.2361 19.6632 45.8347 21.1472 45.8333 22.9167V31.25C45.8333 32.3958 45.4257 33.3771 44.6104 34.1937C43.7951 35.0104 42.8139 35.4181 41.6667 35.4167H37.5V39.5833C37.5 40.7292 37.0924 41.7104 36.2771 42.5271C35.4618 43.3438 34.4805 43.7514 33.3333 43.75H16.6667ZM37.5 14.5833H12.5V10.4167C12.5 9.27083 12.9083 8.29028 13.725 7.475C14.5417 6.65972 15.5222 6.25139 16.6667 6.25H33.3333C34.4792 6.25 35.4604 6.65833 36.2771 7.475C37.0937 8.29167 37.5014 9.27222 37.5 10.4167V14.5833ZM37.5 26.0417C38.0903 26.0417 38.5854 25.8417 38.9854 25.4417C39.3854 25.0417 39.5847 24.5472 39.5833 23.9583C39.5819 23.3694 39.3819 22.875 38.9833 22.475C38.5847 22.075 38.0903 21.875 37.5 21.875C36.9097 21.875 36.4153 22.075 36.0167 22.475C35.618 22.875 35.418 23.3694 35.4167 23.9583C35.4153 24.5472 35.6153 25.0424 36.0167 25.4438C36.418 25.8451 36.9125 26.0444 37.5 26.0417ZM16.6667 39.5833H33.3333V31.25H16.6667V39.5833Z" fill="black"/>
</svg>
