<svg width="246" height="287" viewBox="0 0 246 287" fill="none" xmlns="http://www.w3.org/2000/svg">
<g clip-path="url(#clip0_20_93)">
<path d="M156.25 21.344C157.94 21.5555 158.573 21.344 159.207 21.5555C197.847 44.826 224.029 77.8277 233.953 122.253C236.487 133.465 236.065 145.101 233.109 156.524C226.985 181.064 206.504 197.988 181.377 199.469C168.286 200.315 155.617 198.834 144.215 191.641C143.37 185.507 142.737 179.372 141.47 173.66C139.359 164.352 134.502 156.736 125.845 152.082C119.51 148.485 113.176 148.485 109.798 151.87C105.363 156.313 105.364 162.236 108.108 167.102C111.909 173.871 116.554 180.218 121.411 186.141C124.578 189.949 128.801 193.122 132.602 196.296C129.012 220.201 106.419 230.355 79.3921 220.412C78.5475 217.027 77.7029 213.431 76.6472 210.046C72.4242 197.565 64.6117 188.045 51.9427 183.603C47.0863 181.91 41.8075 181.276 37.5845 185.718C34.4173 189.103 34.4173 195.026 37.7957 200.95C43.2856 210.258 51.5204 216.816 60.3887 222.528C63.5559 224.432 66.7232 226.336 69.8904 228.028C65.6674 265.049 32.517 291.281 0 276.473C0.211149 279.223 -1.29001e-05 281.55 0.844584 282.819C1.90033 284.3 4.22297 285.146 6.12332 285.569C24.071 288.954 40.7518 286.839 54.4765 273.723C64.8228 263.991 71.7908 252.145 76.4361 238.605C77.0695 236.702 77.703 234.798 78.5476 232.894C78.5476 232.682 78.9698 232.471 79.8144 231.836C81.7147 232.047 84.0374 232.047 86.36 232.471C114.654 236.913 129.434 229.297 142.526 202.854C145.06 203.7 148.016 204.546 150.761 205.604C167.019 211.104 183.278 211.527 199.747 206.027C226.563 197.142 243.877 174.083 245.778 144.889C246.833 129.023 244.089 113.791 238.388 98.9827C224.452 63.2308 201.648 35.0947 167.441 16.6899C165.752 15.6321 163.852 14.7859 162.163 13.7282C161.951 13.5166 161.74 13.0935 161.107 11.8242C168.286 10.1318 175.043 10.7665 181.8 11.1896C188.345 11.4012 195.102 12.0358 202.281 12.4589C201.648 6.95859 198.691 4.84311 195.102 3.57382C190.879 2.3045 186.656 0.612122 182.433 0.400574C171.031 -0.022522 159.418 -0.2341 147.804 0.400574C138.725 1.03522 136.191 5.90088 140.203 13.3051C148.86 28.9598 157.728 44.6144 166.597 60.2691C168.075 62.8077 169.975 64.9232 172.298 67.8849C176.31 63.2308 174.62 59.846 173.142 56.6728C167.23 45.2491 161.951 33.8254 156.25 21.344ZM43.919 192.065C58.4883 193.968 67.5677 203.277 68.2012 216.393C58.4883 210.046 49.1978 204.334 43.919 192.065ZM115.288 159.274C127.745 162.236 133.658 170.698 132.391 183.603C124.367 176.833 117.399 170.486 115.288 159.274Z" fill="black"/>
</g>
<defs>
<clipPath id="clip0_20_93">
<rect width="246" height="287" fill="white" transform="matrix(1 0 0 -1 0 287)"/>
</clipPath>
</defs>
</svg>
