<svg width="268" height="261" viewBox="0 0 268 261" fill="none" xmlns="http://www.w3.org/2000/svg">
<g clip-path="url(#clip0_42_83)">
<path d="M83.8063 87.7846C83.7233 87.7845 83.6434 87.7509 83.5828 87.6904C83.5221 87.6299 83.4852 87.547 83.4794 87.4586C83.265 84.3451 81.9583 81.433 79.8207 79.3049C77.6831 77.1769 74.8723 75.9898 71.9508 75.9814C71.6011 75.9814 71.2338 76.0004 70.859 76.0379C70.7963 76.0442 70.7333 76.0311 70.6774 76.0001C70.6215 75.9692 70.5751 75.9217 70.5438 75.8633C69.2017 73.3536 67.1977 71.3219 64.7818 70.0215C62.366 68.7211 59.6453 68.2097 56.9592 68.5511C54.2731 68.8925 51.7406 70.0715 49.6775 71.9411C47.6145 73.8107 46.1124 76.2881 45.3586 79.0642C45.3386 79.1385 45.2961 79.2037 45.2377 79.2494C45.1794 79.2952 45.1084 79.3189 45.0361 79.3168L44.949 79.314C44.9038 79.314 44.8582 79.3107 44.8127 79.3107C42.5967 79.3179 40.4496 80.1347 38.7279 81.6254C37.0061 83.1161 35.8132 85.1912 35.3471 87.5062C35.3316 87.5848 35.2912 87.6554 35.2328 87.706C35.1744 87.7566 35.1015 87.7842 35.0262 87.7842H13.0528C12.9658 87.7842 12.8823 87.7473 12.8208 87.6816C12.7593 87.6158 12.7247 87.5267 12.7247 87.4337C12.7247 87.3407 12.7593 87.2516 12.8208 87.1858C12.8823 87.1201 12.9658 87.0832 13.0528 87.0832H34.7623C35.3089 84.6753 36.5944 82.5325 38.4139 80.9967C40.2333 79.4608 42.4817 78.6204 44.8003 78.6096C45.6257 75.7565 47.2087 73.221 49.3571 71.311C51.5055 69.401 54.1267 68.1989 56.9022 67.8505C59.6778 67.5022 62.4884 68.0227 64.9924 69.3489C67.4964 70.675 69.5861 72.7496 71.0077 75.3207C71.3302 75.2939 71.6467 75.2803 71.9511 75.2803C75.0385 75.2892 78.0089 76.5436 80.2679 78.7925C82.5268 81.0414 83.9077 84.1189 84.1342 87.4092C84.1372 87.4551 84.1318 87.5012 84.1181 87.5449C84.1045 87.5886 84.083 87.6289 84.0547 87.6637C84.0265 87.6985 83.9921 87.7269 83.9536 87.7475C83.915 87.7681 83.873 87.7803 83.8301 87.7835L83.8063 87.7846Z" fill="#999999"/>
<path d="M79.9042 92.2781H26.1176C26.0306 92.2781 25.9472 92.2412 25.8856 92.1754C25.8241 92.1097 25.7896 92.0205 25.7896 91.9276C25.7896 91.8346 25.8241 91.7454 25.8856 91.6797C25.9472 91.6139 26.0306 91.577 26.1176 91.577H79.9042C79.9912 91.577 80.0746 91.6139 80.1362 91.6797C80.1977 91.7454 80.2323 91.8346 80.2323 91.9276C80.2323 92.0205 80.1977 92.1097 80.1362 92.1754C80.0746 92.2412 79.9912 92.2781 79.9042 92.2781Z" fill="#999999"/>
<path d="M39.2361 97.36H21.1978C21.1108 97.36 21.0274 97.3231 20.9658 97.2574C20.9043 97.1916 20.8698 97.1024 20.8698 97.0095C20.8698 96.9165 20.9043 96.8273 20.9658 96.7616C21.0274 96.6959 21.1108 96.6589 21.1978 96.6589H39.2361C39.3231 96.6589 39.4065 96.6959 39.468 96.7616C39.5296 96.8273 39.5641 96.9165 39.5641 97.0095C39.5641 97.1024 39.5296 97.1916 39.468 97.2574C39.4065 97.3231 39.3231 97.36 39.2361 97.36Z" fill="#999999"/>
<path d="M42.3336 199.039C42.3336 220.284 21.4898 230.45 21.4898 230.45C21.4898 230.45 0.432317 220.284 0.00463644 199.039C-0.246546 186.551 9.48026 176.423 21.169 176.423C23.9483 176.423 26.7004 177.008 29.2682 178.144C31.836 179.281 34.1691 180.947 36.1344 183.047C38.0997 185.147 39.6586 187.64 40.7222 190.384C41.7859 193.128 42.3333 196.069 42.3333 199.039H42.3336Z" fill="#808080"/>
<path d="M28.545 231.706H14.4352L12.7249 224.396H30.2551L28.545 231.706Z" fill="#B7B7B7"/>
<path d="M28.0637 244.208H14.9161V251.529H28.0637V244.208Z" fill="white"/>
<path d="M28.1705 251.644H14.8076V244.092H28.1705V251.644ZM15.023 251.415H27.9569V244.322H15.023V251.415Z" fill="#B7B7B7"/>
<path d="M24.1851 232.568H18.7951L18.1765 231.53H24.8037L24.1851 232.568Z" fill="#B7B7B7"/>
<path d="M14.7558 231.706H14.5421V242.9H14.7558V231.706Z" fill="#B7B7B7"/>
<path d="M28.4378 231.706H28.2241V242.9H28.4378V231.706Z" fill="#B7B7B7"/>
<path d="M23.6343 224.272L23.5037 224.091C29.6797 219.001 37.0417 210.283 37.0417 197.648C37.0467 193.223 35.8289 188.895 33.541 185.207C31.2532 181.518 27.9971 178.634 24.1812 176.915L24.2646 176.704C28.1193 178.441 31.4085 181.354 33.7197 185.08C36.0308 188.806 37.2611 193.178 37.2561 197.648C37.2541 210.376 29.8469 219.152 23.6343 224.272Z" fill="#B7B7B7"/>
<path d="M16.7916 224.272L16.661 224.09C22.8371 219.001 30.1991 210.282 30.1991 197.648C30.2007 193.252 28.9975 188.953 26.7379 185.28C24.4783 181.607 21.2614 178.722 17.4846 176.981L17.5693 176.772C21.3845 178.53 24.634 181.445 26.9165 185.155C29.199 188.865 30.4145 193.208 30.4128 197.648C30.4131 210.376 23.0055 219.151 16.7916 224.272Z" fill="#B7B7B7"/>
<path d="M25.5466 224.272C19.3326 219.151 11.9254 210.375 11.9254 197.648C11.9237 193.208 13.1392 188.865 15.4218 185.155C17.7044 181.444 20.954 178.53 24.7692 176.772L24.854 176.981C21.077 178.722 17.8601 181.607 15.6004 185.28C13.3408 188.953 12.1375 193.252 12.1391 197.648C12.1391 210.281 19.5011 219.001 25.6772 224.09L25.5466 224.272Z" fill="#B7B7B7"/>
<path d="M18.7056 224.272C12.4914 219.151 5.0845 210.376 5.0845 197.648C5.07751 193.161 6.31639 188.772 8.6444 185.036C10.9724 181.301 14.2849 178.388 18.1628 176.665L18.2451 176.876C14.4062 178.582 11.127 181.466 8.82234 185.163C6.5177 188.861 5.29125 193.206 5.29818 197.648C5.29818 210.281 12.6602 219.002 18.8363 224.091L18.7056 224.272Z" fill="#B7B7B7"/>
<path d="M21.2758 176.423H21.0621V224.396H21.2758V176.423Z" fill="#B7B7B7"/>
<path d="M18.7618 242.548L14.8418 246.737L14.9929 246.899L18.9129 242.71L18.7618 242.548Z" fill="#B7B7B7"/>
<path d="M20.6675 242.478L14.8402 249.027L14.9951 249.185L20.8223 242.636L20.6675 242.478Z" fill="#B7B7B7"/>
<path d="M29.2929 242.557H13.2594V244.613H29.2929V242.557Z" fill="white"/>
<path d="M29.3997 244.728H13.1522V242.444H29.3997V244.728ZM13.3662 244.5H29.1861V242.672H13.3659L13.3662 244.5Z" fill="#B7B7B7"/>
<path d="M82.6722 145.197C82.6722 159.219 68.9144 165.929 68.9144 165.929C68.9144 165.929 55.0156 159.219 54.7333 145.197C54.5658 136.954 60.9878 130.269 68.7028 130.269C72.4077 130.269 75.9609 131.842 78.5806 134.641C81.2004 137.441 82.6722 141.238 82.6722 145.197Z" fill="#808080"/>
<path d="M73.5711 166.759H64.2579L63.1293 161.934H74.7001L73.5711 166.759Z" fill="#B7B7B7"/>
<path d="M73.2532 175.01H64.5753V179.843H73.2532V175.01Z" fill="white"/>
<path d="M73.3238 179.916H64.5046V174.935H73.3238V179.916ZM64.646 179.766H73.1828V175.085H64.646V179.766Z" fill="#B7B7B7"/>
<path d="M70.6932 167.328H67.1354L66.7272 166.642H71.1014L70.6932 167.328Z" fill="#B7B7B7"/>
<path d="M64.4691 166.759H64.3281V174.147H64.4691V166.759Z" fill="#B7B7B7"/>
<path d="M73.5004 166.759H73.3594V174.147H73.5004V166.759Z" fill="#B7B7B7"/>
<path d="M70.3287 161.852L70.2427 161.732C74.3192 158.373 79.1784 152.619 79.1784 144.279C79.1817 141.358 78.3778 138.501 76.8676 136.067C75.3575 133.632 73.2082 131.729 70.6894 130.594L70.7444 130.455C73.2884 131.601 75.4592 133.525 76.9844 135.984C78.5096 138.443 79.3215 141.329 79.3181 144.279C79.3204 152.68 74.4307 158.472 70.3287 161.852Z" fill="#B7B7B7"/>
<path d="M65.8135 161.852L65.7274 161.732C69.8039 158.373 74.6632 152.618 74.6632 144.279C74.6642 141.378 73.87 138.54 72.3786 136.116C70.8871 133.691 68.7639 131.787 66.271 130.638L66.3269 130.5C68.845 131.66 70.9897 133.584 72.4963 136.032C74.0028 138.481 74.8051 141.348 74.8042 144.278C74.8042 152.68 69.9148 158.472 65.8135 161.852Z" fill="#B7B7B7"/>
<path d="M71.5918 161.852C67.4905 158.472 62.6028 152.68 62.6028 144.279C62.6018 141.349 63.4041 138.482 64.9107 136.033C66.4172 133.585 68.562 131.661 71.08 130.501L71.136 130.639C68.643 131.788 66.5197 133.693 65.0283 136.117C63.5368 138.541 62.7426 141.379 62.7438 144.28C62.7438 152.619 67.603 158.374 71.6795 161.734L71.5918 161.852Z" fill="#B7B7B7"/>
<path d="M67.0767 161.852C62.9751 158.472 58.0861 152.68 58.0861 144.28C58.0814 141.318 58.8991 138.421 60.4357 135.956C61.9723 133.49 64.1588 131.567 66.7184 130.43L66.7727 130.569C64.2388 131.695 62.0743 133.599 60.5532 136.039C59.032 138.48 58.2225 141.347 58.2271 144.28C58.2271 152.618 63.0863 158.374 67.1628 161.733L67.0767 161.852Z" fill="#B7B7B7"/>
<path d="M68.7731 130.269H68.6321V161.934H68.7731V130.269Z" fill="#B7B7B7"/>
<path d="M67.1143 173.915L64.5269 176.68L64.6266 176.786L67.214 174.021L67.1143 173.915Z" fill="#B7B7B7"/>
<path d="M68.3721 173.869L64.5258 178.191L64.6279 178.295L68.4743 173.972L68.3721 173.869Z" fill="#B7B7B7"/>
<path d="M74.0648 173.921H63.4819V175.278H74.0648V173.921Z" fill="white"/>
<path d="M74.1353 175.353H63.4115V173.846H74.1353V175.353ZM63.5522 175.203H73.994V173.996H63.5525L63.5522 175.203Z" fill="#B7B7B7"/>
<path d="M199.591 165.387C199.671 165.387 199.748 165.355 199.806 165.297C199.865 165.238 199.9 165.159 199.906 165.074C200.112 162.077 201.37 159.275 203.427 157.226C205.484 155.178 208.189 154.036 211.001 154.028C211.336 154.028 211.691 154.046 212.052 154.082C212.112 154.089 212.173 154.076 212.227 154.046C212.28 154.016 212.325 153.97 212.355 153.914C213.647 151.499 215.575 149.543 217.901 148.291C220.226 147.039 222.844 146.547 225.43 146.876C228.015 147.204 230.453 148.339 232.438 150.139C234.424 151.938 235.869 154.323 236.595 156.995C236.614 157.066 236.655 157.129 236.711 157.173C236.767 157.217 236.835 157.24 236.905 157.238L236.989 157.235C237.033 157.235 237.077 157.232 237.12 157.232C239.253 157.239 241.319 158.025 242.976 159.46C244.633 160.895 245.781 162.892 246.23 165.119C246.245 165.195 246.284 165.263 246.34 165.312C246.396 165.361 246.466 165.387 246.539 165.387H267.685C267.768 165.387 267.849 165.352 267.908 165.288C267.967 165.225 268 165.139 268 165.05C268 164.96 267.967 164.875 267.908 164.811C267.849 164.748 267.768 164.713 267.685 164.713H246.791C246.265 162.395 245.028 160.333 243.277 158.855C241.526 157.377 239.362 156.568 237.131 156.558C236.336 153.812 234.813 151.371 232.745 149.533C230.678 147.695 228.155 146.538 225.484 146.203C222.812 145.867 220.107 146.368 217.698 147.645C215.288 148.921 213.277 150.918 211.908 153.392C211.598 153.366 211.294 153.353 211 153.353C208.029 153.362 205.171 154.569 202.997 156.733C200.823 158.897 199.494 161.858 199.276 165.025C199.273 165.069 199.278 165.113 199.291 165.155C199.305 165.197 199.325 165.236 199.352 165.269C199.38 165.303 199.413 165.33 199.45 165.35C199.487 165.37 199.527 165.382 199.569 165.385L199.591 165.387Z" fill="#999999"/>
<path d="M203.347 169.711H255.111C255.195 169.711 255.275 169.676 255.335 169.613C255.394 169.549 255.427 169.464 255.427 169.374C255.427 169.285 255.394 169.199 255.335 169.136C255.275 169.072 255.195 169.037 255.111 169.037H203.347C203.263 169.037 203.183 169.072 203.124 169.136C203.064 169.199 203.031 169.285 203.031 169.374C203.031 169.464 203.064 169.549 203.124 169.613C203.183 169.676 203.263 169.711 203.347 169.711Z" fill="#999999"/>
<path d="M242.486 174.603H259.846C259.929 174.603 260.01 174.567 260.069 174.504C260.128 174.44 260.161 174.355 260.161 174.265C260.161 174.176 260.128 174.09 260.069 174.027C260.01 173.963 259.929 173.928 259.846 173.928H242.486C242.402 173.928 242.322 173.963 242.262 174.027C242.203 174.09 242.17 174.176 242.17 174.265C242.17 174.355 242.203 174.44 242.262 174.504C242.322 174.567 242.402 174.603 242.486 174.603Z" fill="#999999"/>
<path d="M128.876 206.3C128.787 206.3 128.702 206.264 128.637 206.199C128.572 206.135 128.533 206.046 128.527 205.952C128.297 202.624 126.901 199.512 124.616 197.237C122.331 194.963 119.327 193.694 116.205 193.685C115.831 193.685 115.439 193.705 115.038 193.746C114.971 193.752 114.904 193.738 114.844 193.705C114.784 193.672 114.735 193.621 114.701 193.559C113.267 190.876 111.125 188.704 108.543 187.314C105.96 185.923 103.052 185.377 100.181 185.742C97.3097 186.106 94.6026 187.367 92.3975 189.366C90.1925 191.364 88.5871 194.013 87.7817 196.98C87.7604 197.06 87.715 197.129 87.6526 197.178C87.5902 197.227 87.5144 197.252 87.4371 197.25L87.344 197.247C87.2954 197.247 87.2472 197.243 87.1983 197.243C84.8299 197.251 82.5353 198.124 80.6951 199.718C78.8549 201.311 77.5798 203.528 77.0813 206.003C77.0647 206.087 77.0216 206.162 76.9592 206.216C76.8967 206.27 76.8188 206.3 76.7384 206.3H53.2544C53.2075 206.301 53.1607 206.293 53.117 206.275C53.0732 206.257 53.0332 206.229 52.9995 206.194C52.9658 206.159 52.939 206.118 52.9207 206.071C52.9024 206.025 52.8929 205.976 52.8929 205.925C52.8929 205.875 52.9024 205.826 52.9207 205.779C52.939 205.733 52.9658 205.691 52.9995 205.656C53.0332 205.621 53.0732 205.594 53.117 205.576C53.1607 205.558 53.2075 205.549 53.2544 205.551H76.4577C77.0418 202.977 78.4158 200.687 80.3604 199.046C82.305 197.404 84.7081 196.506 87.1862 196.494C88.0684 193.445 89.7603 190.735 92.0565 188.693C94.3526 186.652 97.1542 185.367 100.121 184.995C103.087 184.622 106.091 185.179 108.768 186.596C111.444 188.013 113.677 190.231 115.197 192.979C115.542 192.95 115.88 192.936 116.205 192.936C119.505 192.945 122.68 194.286 125.094 196.689C127.508 199.093 128.984 202.382 129.227 205.899C129.23 205.948 129.224 205.997 129.209 206.044C129.195 206.09 129.172 206.134 129.141 206.171C129.111 206.208 129.075 206.238 129.033 206.26C128.992 206.282 128.947 206.295 128.901 206.299L128.876 206.3Z" fill="#999999"/>
<path d="M124.705 211.103H67.2178C67.1709 211.104 67.1241 211.096 67.0803 211.078C67.0365 211.059 66.9966 211.032 66.9629 210.997C66.9292 210.962 66.9024 210.92 66.8841 210.874C66.8658 210.828 66.8563 210.778 66.8563 210.728C66.8563 210.678 66.8658 210.628 66.8841 210.582C66.9024 210.536 66.9292 210.494 66.9629 210.459C66.9966 210.424 67.0365 210.397 67.0803 210.379C67.1241 210.361 67.1709 210.352 67.2178 210.354H124.705C124.752 210.352 124.799 210.361 124.843 210.379C124.886 210.397 124.926 210.424 124.96 210.459C124.994 210.494 125.021 210.536 125.039 210.582C125.057 210.628 125.067 210.678 125.067 210.728C125.067 210.778 125.057 210.828 125.039 210.874C125.021 210.92 124.994 210.962 124.96 210.997C124.926 211.032 124.886 211.059 124.843 211.078C124.799 211.096 124.752 211.104 124.705 211.103Z" fill="#999999"/>
<path d="M81.2389 216.534H61.9598C61.9128 216.535 61.8661 216.527 61.8223 216.509C61.7785 216.491 61.7385 216.463 61.7048 216.428C61.6711 216.393 61.6443 216.352 61.626 216.305C61.6077 216.259 61.5983 216.209 61.5983 216.159C61.5983 216.109 61.6077 216.059 61.626 216.013C61.6443 215.967 61.6711 215.925 61.7048 215.89C61.7385 215.855 61.7785 215.828 61.8223 215.81C61.8661 215.792 61.9128 215.783 61.9598 215.785H81.2392C81.2861 215.783 81.3329 215.792 81.3767 215.81C81.4205 215.828 81.4604 215.855 81.4941 215.89C81.5278 215.925 81.5546 215.967 81.573 216.013C81.5913 216.059 81.6007 216.109 81.6007 216.159C81.6007 216.209 81.5913 216.259 81.573 216.305C81.5546 216.352 81.5278 216.393 81.4941 216.428C81.4604 216.463 81.4205 216.491 81.3767 216.509C81.3329 216.527 81.2861 216.535 81.2392 216.534H81.2389Z" fill="#999999"/>
<path d="M160.688 213.619H162.681L162.852 215.599C162.852 215.599 161.513 216.094 161.048 215.599C160.584 215.104 160.688 213.619 160.688 213.619Z" fill="#9F616A"/>
<path d="M169.166 214.754H171.159L171.33 216.735C171.33 216.735 169.99 217.23 169.526 216.735C169.061 216.24 169.166 214.754 169.166 214.754Z" fill="#ED9DA0"/>
<path d="M159.567 236.456C162.043 236.444 164.503 236.884 166.84 237.757C166.921 233.563 165.606 229.476 163.129 226.222L163.11 226.199L163.119 226.17C163.772 224.156 164.446 222.075 165.049 220.003L165.04 219.967C164.617 218.362 163.71 216.74 162.267 215.009C162.11 214.835 161.898 214.732 161.673 214.72C161.448 214.708 161.227 214.788 161.054 214.943C159.79 216.179 158.805 217.705 158.175 219.407C157.544 221.11 157.284 222.943 157.415 224.768V224.779L157.412 224.789C156.282 228.88 155.871 230.98 155.51 232.835C155.246 234.187 155.017 235.358 154.558 237.031C156.204 236.649 157.883 236.456 159.567 236.456Z" fill="#D7D5FF"/>
<path opacity="0.1" d="M163.212 223.524L159.537 232.077L157.436 229.806L163.212 223.524Z" fill="black"/>
<path d="M161.64 214.177C163.085 214.177 164.256 212.926 164.256 211.382C164.256 209.839 163.085 208.588 161.64 208.588C160.196 208.588 159.025 209.839 159.025 211.382C159.025 212.926 160.196 214.177 161.64 214.177Z" fill="#9F616A"/>
<path d="M158.469 209.804H162.622V207.869C161.711 207.482 160.819 207.153 160.28 207.869C159.8 207.869 159.339 208.073 159 208.436C158.66 208.799 158.469 209.291 158.469 209.804Z" fill="#090814"/>
<path d="M162.852 207.528C165.335 207.528 166.03 210.853 166.03 212.729C166.03 213.775 165.587 214.15 164.891 214.276L164.646 212.876L164.07 214.336C163.875 214.336 163.668 214.334 163.457 214.329L163.261 213.9L162.826 214.321C161.084 214.324 159.675 214.596 159.675 212.729C159.675 210.853 160.284 207.528 162.852 207.528Z" fill="#090814"/>
<path d="M237.842 78.4134C237.842 152.074 165.574 187.32 165.574 187.32C165.574 187.32 92.5632 152.074 91.0816 78.4134C90.2108 35.1171 123.936 0.00201416 164.46 0.00201416C204.985 0.00201416 237.842 35.1071 237.842 78.4134Z" fill="#B7B7B7"/>
<path d="M172.653 237.254C172.489 237.141 172.35 236.992 172.246 236.815C172.142 236.639 172.076 236.44 172.051 236.233C172.027 236.026 172.045 235.816 172.105 235.618C172.165 235.419 172.264 235.237 172.397 235.085L171.394 219.875L174.283 220.174L174.363 235.069C174.587 235.325 174.717 235.659 174.726 236.01C174.736 236.36 174.625 236.702 174.415 236.971C174.204 237.24 173.909 237.417 173.585 237.469C173.261 237.522 172.93 237.445 172.655 237.255L172.653 237.254Z" fill="#ED9DA0"/>
<path d="M172.047 224.985C171.98 224.933 171.924 224.865 171.884 224.787C171.844 224.709 171.821 224.622 171.816 224.533L171.605 220.434C171.584 220.027 171.704 219.627 171.943 219.31C172.182 218.993 172.522 218.782 172.898 218.717C173.273 218.653 173.658 218.739 173.978 218.959C174.298 219.18 174.53 219.519 174.63 219.912L175.56 223.577C175.599 223.73 175.579 223.893 175.505 224.031C175.431 224.168 175.31 224.269 175.167 224.31L172.521 225.076C172.441 225.1 172.356 225.104 172.274 225.088C172.193 225.072 172.115 225.037 172.047 224.985Z" fill="#F2F2F2"/>
<path d="M169.577 215.242C171.263 215.242 172.629 213.782 172.629 211.981C172.629 210.18 171.263 208.72 169.577 208.72C167.892 208.72 166.525 210.18 166.525 211.981C166.525 213.782 167.892 215.242 169.577 215.242Z" fill="#ED9DA0"/>
<path d="M171.737 214.561C171.609 214.708 171.445 214.813 171.263 214.864C171.082 214.914 170.891 214.909 170.712 214.847C170.533 214.786 170.375 214.671 170.255 214.517C170.135 214.362 170.059 214.175 170.036 213.976C170.03 213.907 170.03 213.838 170.036 213.769C170.074 213.376 170.286 213.021 170.237 212.607C170.226 212.503 170.19 212.405 170.133 212.321C169.679 211.671 168.614 212.611 168.186 212.023C167.923 211.663 168.232 211.096 168.03 210.693C167.764 210.161 166.977 210.423 166.483 210.132C165.933 209.808 165.966 208.907 166.328 208.359C166.563 208.035 166.863 207.771 167.205 207.585C167.547 207.399 167.923 207.296 168.307 207.283C169.075 207.263 169.837 207.422 170.542 207.748C171.375 208.037 172.109 208.581 172.654 209.313C172.937 209.793 173.115 210.333 173.178 210.896C173.24 211.459 173.185 212.029 173.016 212.566C172.831 213.227 172.202 214.032 171.737 214.561Z" fill="#090814"/>
<path d="M172.623 217.42C172.57 217.379 172.516 217.339 172.461 217.3C172.168 217.092 171.851 216.926 171.517 216.805V215.949H169.157V216.744C168.374 216.974 167.673 217.446 167.139 218.099C166.605 218.753 166.263 219.56 166.155 220.42L164.547 233.173C164.537 233.252 164.542 233.334 164.562 233.411C164.582 233.489 164.616 233.561 164.663 233.624C164.709 233.687 164.766 233.739 164.831 233.777C164.896 233.815 164.968 233.839 165.042 233.847C166.169 234.003 167.254 234.4 168.233 235.014C168.944 235.435 169.744 235.653 170.557 235.648C171.203 235.646 171.843 235.524 172.449 235.288C172.552 235.248 172.641 235.176 172.706 235.081C172.77 234.986 172.807 234.873 172.812 234.756C172.869 233.384 173.208 226.319 174.194 222.01C174.385 221.165 174.338 220.278 174.059 219.461C173.78 218.644 173.28 217.934 172.624 217.42L172.623 217.42Z" fill="#F2F2F2"/>
<path d="M190.034 191.676H141.115L135.184 166.331H195.964L190.034 191.676Z" fill="#090814"/>
<path d="M174.92 194.665H156.232L154.088 191.064H177.063L174.92 194.665Z" fill="#090814"/>
<path d="M142.226 191.676H141.485V230.487H142.226V191.676Z" fill="#090814"/>
<path d="M189.664 191.676H188.922V230.487H189.664V191.676Z" fill="#090814"/>
<path d="M173.004 165.901L172.551 165.274C193.964 147.629 219.49 117.398 219.49 73.5936C219.507 58.2508 215.284 43.2441 207.352 30.4555C199.419 17.667 188.129 7.66595 174.898 1.70671L175.187 0.977356C188.552 6.9968 199.957 17.0992 207.97 30.0175C215.984 42.9358 220.249 58.0949 220.232 73.5936C220.232 117.72 194.549 148.147 173.004 165.901Z" fill="#090814"/>
<path d="M149.284 165.901L148.832 165.274C170.245 147.629 195.77 117.399 195.77 73.5929C195.776 58.3534 191.604 43.4458 183.77 30.7117C175.936 17.9776 164.782 7.9747 151.687 1.93864L151.981 1.21143C165.209 7.30854 176.476 17.4129 184.39 30.2763C192.304 43.1396 196.519 58.1986 196.513 73.5929C196.513 117.721 170.829 148.148 149.284 165.901Z" fill="#090814"/>
<path d="M179.64 165.901C158.095 148.147 132.412 117.721 132.412 73.5929C132.407 58.1986 136.621 43.1398 144.535 30.2764C152.449 17.413 163.716 7.30861 176.944 1.21143L177.238 1.93864C164.143 7.97458 152.989 17.9775 145.154 30.7117C137.32 43.4459 133.148 58.3536 133.154 73.5932C133.154 117.4 158.679 147.629 180.092 165.274L179.64 165.901Z" fill="#090814"/>
<path d="M155.921 165.901C134.376 148.147 108.693 117.721 108.693 73.5925C108.669 58.0332 112.965 42.8158 121.036 29.8658C129.108 16.9158 140.593 6.81524 154.038 0.842102L154.324 1.57289C141.014 7.48597 129.644 17.4851 121.653 30.305C113.663 43.1249 109.411 58.1894 109.435 73.5925C109.435 117.399 134.96 147.628 156.373 165.274L155.921 165.901Z" fill="#090814"/>
<path d="M164.832 0H164.091V166.331H164.832V0Z" fill="#090814"/>
<path d="M192.628 229.299H137.037V236.427H192.628V229.299Z" fill="white"/>
<path d="M155.017 232.614C155.166 232.603 155.31 232.557 155.44 232.48C155.571 232.403 155.683 232.296 155.771 232.167C155.858 232.038 155.918 231.891 155.947 231.734C155.975 231.578 155.971 231.417 155.935 231.263L158.964 229.142L157.236 228.345L154.624 230.481C154.385 230.563 154.183 230.736 154.056 230.967C153.929 231.198 153.885 231.471 153.934 231.734C153.982 231.997 154.119 232.231 154.318 232.394C154.518 232.556 154.766 232.634 155.016 232.614H155.017Z" fill="#9F616A"/>
<path d="M157.931 231.086L157.893 231.057C157.172 230.49 156.372 229.904 155.598 229.337L155.552 229.301L155.588 229.255C157.24 227.19 158.894 225.032 160.493 222.946L160.49 222.939L160.505 222.931L160.512 222.922L160.515 222.925L160.525 222.92L160.481 222.923L159.988 218.792C159.744 218.362 159.619 217.868 159.629 217.365C159.638 216.863 159.781 216.373 160.041 215.954C160.34 215.503 160.785 215.184 161.29 215.061C161.795 214.938 162.325 215.018 162.778 215.287C163.001 215.447 163.188 215.659 163.324 215.906C163.461 216.154 163.544 216.432 163.566 216.718C163.598 216.974 163.576 217.233 163.502 217.479C163.427 217.724 163.303 217.948 163.137 218.135C163.307 220.14 163.383 222.153 163.362 224.166V224.185L163.351 224.201C161.646 226.515 159.773 228.817 157.962 231.045L157.931 231.086Z" fill="#D7D5FF"/>
<path d="M158.518 218.388C158.534 218.459 158.544 218.532 158.548 218.605L163.886 221.896L165.183 221.097L166.566 223.032L163.791 225.146L157.701 220.012C157.453 220.111 157.183 220.126 156.926 220.056C156.669 219.986 156.439 219.834 156.265 219.62C156.091 219.407 155.982 219.142 155.953 218.86C155.923 218.579 155.975 218.295 156.1 218.046C156.226 217.796 156.419 217.594 156.655 217.465C156.89 217.336 157.157 217.287 157.42 217.324C157.682 217.361 157.928 217.483 158.124 217.672C158.321 217.862 158.458 218.112 158.519 218.387L158.518 218.388Z" fill="#ED9DA0"/>
<path d="M164.076 221.616C164.067 221.528 164.077 221.438 164.105 221.354C164.133 221.27 164.178 221.194 164.237 221.131L166.953 218.228C167.222 217.94 167.582 217.769 167.962 217.748C168.342 217.727 168.716 217.857 169.012 218.113C169.307 218.368 169.504 218.732 169.564 219.134C169.623 219.536 169.542 219.947 169.335 220.288L167.4 223.473C167.319 223.606 167.193 223.699 167.048 223.732C166.903 223.765 166.751 223.735 166.627 223.649L164.328 222.055C164.258 222.007 164.199 221.942 164.155 221.866C164.112 221.79 164.085 221.705 164.076 221.616V221.616Z" fill="#F2F2F2"/>
<path d="M140.26 235.239H189.464V261H140.26V235.239Z" fill="white"/>
<path d="M136.554 229.011H192.886V236.536H136.554V229.011Z" fill="white"/>
</g>
<defs>
<clipPath id="clip0_42_83">
<rect width="268" height="261" fill="white"/>
</clipPath>
</defs>
</svg>
