<svg width="83" height="126" viewBox="0 0 83 126" fill="none" xmlns="http://www.w3.org/2000/svg">
<path d="M41.6074 36.8444C41.1912 38.8159 40.5023 40.7087 39.9934 42.6542C39.4822 44.6078 39.2137 46.5967 39.5245 48.6108C39.8286 50.5823 40.5622 52.444 41.1448 54.3378C41.7571 56.328 42.2698 58.3508 42.689 60.3932C43.101 62.4013 43.5609 64.4995 43.4782 66.5634C43.4079 68.3163 42.7692 69.8519 41.851 71.3038C41.0413 72.5846 40.0933 73.7903 39.5006 75.2029C38.7899 76.8967 38.7908 78.7155 39.3539 80.4569C39.943 82.2793 41.0785 83.8373 41.7388 85.6267C42.4057 87.434 42.5301 89.4403 42.2294 91.3409C42.1518 91.8322 42.0423 92.3161 41.9048 92.7932C41.8893 92.8472 42.3925 93.022 42.3995 92.9977C42.9405 91.1218 43.037 89.0858 42.6238 87.1719C42.2121 85.2654 41.1422 83.6799 40.3482 81.938C39.5702 80.2309 39.1607 78.3317 39.6352 76.4727C40.0173 74.9755 40.8887 73.6984 41.7319 72.4428C42.5871 71.1693 43.4247 69.8537 43.7734 68.3259C44.2397 66.284 43.846 64.1446 43.4782 62.1204C43.1026 60.0542 42.6333 58.0059 42.0649 55.9864C41.5228 54.0615 40.7967 52.1902 40.3122 50.2488C40.0692 49.275 39.9032 48.2787 39.8776 47.2719C39.8519 46.2656 39.9661 45.2611 40.1598 44.2762C40.5442 42.3212 41.2263 40.4471 41.7443 38.5286C41.8765 38.0387 41.9972 37.5461 42.1021 37.0493C42.1163 36.9821 41.6099 36.833 41.6074 36.8444Z" fill="#999999"/>
<path d="M39.9261 38.2724C39.8097 38.4193 39.6792 38.5574 39.5964 38.7262C39.5136 38.8954 39.486 39.1081 39.5812 39.2701C39.7057 39.4828 39.9976 39.5308 40.2257 39.4517C40.4538 39.3721 40.6359 39.1969 40.8195 39.0363C41.0031 38.8758 41.2088 38.7202 41.4482 38.6942C41.7093 38.6654 41.9583 38.7953 42.2048 38.8881C42.4514 38.981 42.7497 39.0313 42.9588 38.868C43.1185 38.7431 43.1816 38.519 43.1627 38.3136C43.1438 38.1078 43.055 37.9165 42.9585 37.7354C42.405 36.6966 41.4678 35.6271 40.434 35.081C40.6413 36.2273 40.7005 37.2967 39.9261 38.2724Z" fill="#B7B7B7"/>
<path d="M55 13.9007C55 21.5782 48.9559 36.8096 41.5 36.8096C34.0441 36.8096 28 21.5782 28 13.9007C28 6.2237 34.0441 -5.72205e-05 41.5 -5.72205e-05C48.9559 -5.72205e-05 55 6.2237 55 13.9007Z" fill="#B7B7B7"/>
<path d="M30.9236 21.2219C30.4819 21.2219 30.0763 20.9214 29.9511 20.4621C29.2891 18.0323 28.9246 15.7022 28.9246 13.9008C28.9246 12.1525 29.2569 10.4568 29.9124 8.86087C30.5458 7.31888 31.4526 5.93424 32.6078 4.74493C32.8052 4.54138 33.0638 4.43983 33.3224 4.43983C33.5811 4.43983 33.8398 4.54138 34.0371 4.74493C34.4317 5.15113 34.4317 5.80983 34.037 6.21648C33.0668 7.2155 32.3054 8.37783 31.774 9.67189C31.2245 11.0094 30.9458 12.4325 30.9458 13.9008C30.9458 15.5174 31.2837 17.648 31.8973 19.9C32.048 20.4534 31.7345 21.028 31.1972 21.183C31.1059 21.2096 31.014 21.2219 30.9236 21.2219Z" fill="white"/>
<path d="M33.7188 28.447C33.3572 28.447 33.0074 28.2462 32.8257 27.8949C32.8077 27.8601 32.7898 27.8249 32.7719 27.7902C32.0231 26.3291 31.3519 24.756 30.7768 23.1148C30.5874 22.5741 30.8594 21.9781 31.3845 21.7828C31.4977 21.7407 31.6136 21.7206 31.7274 21.7206C32.1413 21.7206 32.5295 21.9845 32.6781 22.4085C33.2214 23.9592 33.8544 25.4426 34.5595 26.8186C34.5764 26.8515 34.5932 26.8845 34.6102 26.9174C34.8723 27.4247 34.6854 28.055 34.1926 28.3249C34.0414 28.4077 33.879 28.447 33.7188 28.447Z" fill="white"/>
<path d="M14.1114 69.8444C13.6798 71.8159 12.9654 73.7087 12.4376 75.6542C11.9076 77.6078 11.6291 79.5967 11.9513 81.6108C12.2668 83.5823 13.0275 85.444 13.6317 87.3378C14.2667 89.328 14.7984 91.3508 15.233 93.3932C15.6604 95.4013 16.1372 97.4995 16.0515 99.5634C15.9786 101.316 15.3162 102.852 14.3641 104.304C13.5243 105.585 12.5412 106.79 11.9266 108.203C11.1895 109.897 11.1905 111.715 11.7745 113.457C12.3854 115.279 13.5629 116.837 14.2477 118.627C14.9393 120.434 15.0683 122.44 14.7565 124.341C14.676 124.832 14.5625 125.316 14.4198 125.793C14.4037 125.847 14.9256 126.022 14.9329 125.998C15.4939 124.122 15.594 122.086 15.1654 120.172C14.7385 118.265 13.629 116.68 12.8056 114.938C11.9987 113.231 11.5741 111.332 12.0662 109.473C12.4625 107.976 13.366 106.698 14.2406 105.443C15.1274 104.169 15.996 102.854 16.3577 101.326C16.8413 99.284 16.4329 97.1446 16.0515 95.1204C15.662 93.0542 15.1754 91.0059 14.5858 88.9864C14.0237 87.0615 13.2706 85.1902 12.7683 83.2488C12.5162 82.275 12.3441 81.2787 12.3175 80.2719C12.2909 79.2656 12.4093 78.2611 12.6102 77.2762C13.0088 75.3212 13.7162 73.4471 14.2534 71.5286C14.3905 71.0387 14.5157 70.5461 14.6244 70.0493C14.6391 69.9821 14.114 69.833 14.1114 69.8444Z" fill="#999999"/>
<path d="M12.3679 71.2724C12.2471 71.4193 12.1118 71.5574 12.0259 71.7262C11.9401 71.8954 11.9115 72.1081 12.0102 72.2701C12.1393 72.4828 12.442 72.5308 12.6786 72.4517C12.9152 72.3721 13.1039 72.1969 13.2943 72.0363C13.4847 71.8758 13.698 71.7202 13.9464 71.6942C14.2172 71.6654 14.4753 71.7953 14.731 71.8881C14.9867 71.981 15.296 72.0313 15.5128 71.868C15.6785 71.7431 15.7439 71.519 15.7243 71.3136C15.7048 71.1078 15.6126 70.9165 15.5126 70.7354C14.9385 69.6966 13.9667 68.6271 12.8946 68.081C13.1095 69.2273 13.1709 70.2967 12.3679 71.2724Z" fill="#B7B7B7"/>
<path d="M28 46.9007C28 54.5782 21.732 69.8096 14 69.8096C6.268 69.8096 0 54.5782 0 46.9007C0 39.2237 6.268 32.9999 14 32.9999C21.732 32.9999 28 39.2237 28 46.9007Z" fill="#B7B7B7"/>
<path d="M3.03196 54.2219C2.57392 54.2219 2.15322 53.9214 2.0234 53.4621C1.33695 51.0323 0.958862 48.7022 0.958862 46.9008C0.958862 45.1525 1.30351 43.4568 1.98332 41.8609C2.64012 40.3189 3.58056 38.9342 4.77856 37.7449C4.9832 37.5414 5.25141 37.4398 5.51962 37.4398C5.78788 37.4398 6.0561 37.5414 6.26074 37.7449C6.67001 38.1511 6.67001 38.8098 6.26069 39.2165C5.25454 40.2155 4.46496 41.3778 3.91382 42.6719C3.34395 44.0094 3.055 45.4325 3.055 46.9008C3.055 48.5174 3.40538 50.648 4.04167 52.9C4.19799 53.4534 3.87292 54.028 3.31563 54.183C3.22101 54.2096 3.12565 54.2219 3.03196 54.2219Z" fill="white"/>
<path d="M5.93059 61.447C5.55555 61.447 5.19285 61.2462 5.00443 60.8949C4.98577 60.8601 4.9672 60.8249 4.94859 60.7902C4.17208 59.3291 3.47601 57.756 2.87963 56.1148C2.68318 55.5741 2.96531 54.9781 3.50977 54.7828C3.62725 54.7407 3.74737 54.7206 3.86544 54.7206C4.29462 54.7206 4.69724 54.9845 4.85134 55.4085C5.41476 56.9592 6.0712 58.4426 6.80245 59.8186C6.81991 59.8515 6.83741 59.8845 6.85497 59.9174C7.12682 60.4247 6.93296 61.055 6.42197 61.3249C6.26515 61.4077 6.09667 61.447 5.93059 61.447Z" fill="white"/>
<path d="M69.1114 64.4482C68.6798 66.3985 67.9654 68.271 67.4376 70.1955C66.9076 72.1282 66.6291 74.0957 66.9513 76.0881C67.2668 78.0384 68.0275 79.8801 68.6317 81.7535C69.2667 83.7224 69.7984 85.7234 70.233 87.7438C70.6604 89.7303 71.1372 91.806 71.0515 93.8477C70.9786 95.5817 70.3162 97.1008 69.3641 98.5371C68.5243 99.8041 67.5412 100.997 66.9266 102.394C66.1895 104.07 66.1905 105.869 66.7745 107.592C67.3854 109.395 68.5629 110.936 69.2477 112.706C69.9393 114.494 70.0683 116.479 69.7565 118.359C69.676 118.845 69.5625 119.323 69.4198 119.795C69.4037 119.849 69.9256 120.022 69.9329 119.998C70.4939 118.142 70.594 116.128 70.1654 114.235C69.7385 112.349 68.629 110.78 67.8056 109.057C66.9987 107.368 66.5741 105.489 67.0662 103.65C67.4625 102.169 68.366 100.906 69.2406 99.6638C70.1274 98.404 70.996 97.1026 71.3577 95.5912C71.8413 93.5712 71.4329 91.4548 71.0515 89.4525C70.662 87.4085 70.1754 85.3822 69.5858 83.3843C69.0237 81.4802 68.2706 79.629 67.7683 77.7085C67.5162 76.7451 67.3441 75.7596 67.3175 74.7636C67.2909 73.7681 67.4093 72.7744 67.6102 71.8001C68.0088 69.8661 68.7162 68.0122 69.2534 66.1143C69.3905 65.6297 69.5157 65.1424 69.6244 64.6509C69.6391 64.5844 69.114 64.4369 69.1114 64.4482Z" fill="#999999"/>
<path d="M67.3679 65.8609C67.2471 66.0062 67.1118 66.1428 67.0259 66.3098C66.9401 66.4772 66.9115 66.6877 67.0102 66.8479C67.1393 67.0583 67.442 67.1058 67.6786 67.0275C67.9152 66.9488 68.1039 66.7755 68.2943 66.6166C68.4847 66.4578 68.698 66.3039 68.9464 66.2781C69.2172 66.2496 69.4753 66.3782 69.731 66.47C69.9867 66.5619 70.296 66.6116 70.5128 66.4501C70.6785 66.3266 70.7439 66.1048 70.7243 65.9017C70.7048 65.698 70.6126 65.5089 70.5126 65.3297C69.9385 64.302 68.9667 63.2441 67.8946 62.7038C68.1095 63.8378 68.1709 64.8957 67.3679 65.8609Z" fill="#B7B7B7"/>
<path d="M83 41.7513C83 49.3462 76.732 64.4138 69 64.4138C61.268 64.4138 55 49.3462 55 41.7513C55 34.1568 61.268 28 69 28C76.732 28 83 34.1568 83 41.7513Z" fill="#B7B7B7"/>
<path d="M58.032 48.9937C57.5739 48.9937 57.1532 48.6964 57.0234 48.242C56.3369 45.8383 55.9589 43.5332 55.9589 41.7513C55.9589 40.0218 56.3035 38.3443 56.9833 36.7655C57.6401 35.2401 58.5806 33.8704 59.7786 32.6938C59.9832 32.4925 60.2514 32.392 60.5196 32.392C60.7879 32.392 61.0561 32.4925 61.2607 32.6938C61.67 33.0957 61.67 33.7473 61.2607 34.1496C60.2545 35.1378 59.465 36.2877 58.9138 37.5678C58.344 38.8909 58.055 40.2987 58.055 41.7513C58.055 43.3504 58.4054 45.4582 59.0417 47.6859C59.198 48.2334 58.8729 48.8018 58.3156 48.9552C58.221 48.9814 58.1256 48.9937 58.032 48.9937Z" fill="white"/>
<path d="M60.9306 56.1411C60.5555 56.1411 60.1928 55.9425 60.0044 55.5949C59.9858 55.5605 59.9672 55.5257 59.9486 55.4913C59.1721 54.046 58.476 52.4898 57.8796 50.8662C57.6832 50.3314 57.9653 49.7417 58.5098 49.5485C58.6272 49.5069 58.7474 49.487 58.8654 49.487C59.2946 49.487 59.6972 49.7481 59.8513 50.1675C60.4148 51.7016 61.0712 53.169 61.8024 54.5302C61.8199 54.5628 61.8374 54.5953 61.855 54.6279C62.1268 55.1298 61.933 55.7533 61.422 56.0203C61.2651 56.1022 61.0967 56.1411 60.9306 56.1411Z" fill="white"/>
</svg>
