<svg width="207" height="127" viewBox="0 0 207 127" fill="none" xmlns="http://www.w3.org/2000/svg">
<path d="M121.254 6.78145C114.466 6.70877 109.736 7.06732 103.464 14.1544C100.095 17.9612 100.303 19.0482 99.8863 18.3085C91.2288 2.96979 86.4443 0.689258 74.6796 0.0286777C62.1909 -0.67228 54.5433 11.6413 54.5821 18.9206C54.6709 36.1506 61.3491 26.3598 46.1007 32.0902C42.0385 33.6165 38.7035 36.3622 38.962 40.6955C39.1171 43.2926 40.3645 45.0369 42.0951 47.9845C42.9676 49.4704 43.6721 48.6548 34.7997 51.6686C33.6621 52.0546 29.6581 53.4581 28.1942 54.2447C25.499 55.6918 25.5798 57.4071 26.8676 58.2114C31.3499 61.0071 40.1415 59.5729 47.6147 59.9234C54.0327 60.2254 126.378 59.5875 135.478 58.8268C138.213 58.5974 143.4 58.8397 143.941 58.8332C163.131 58.5974 177.339 60.5113 181.301 56.7142C182.202 55.8501 182.246 54.747 181.351 53.8554C180.826 53.3305 180.179 52.9978 179.539 52.6619C173.979 49.7353 168.521 48.5563 165.631 47.8311C163.486 47.2933 162.955 47.6421 163.191 46.9605C164.26 43.8628 163.58 39.7652 161.767 36.8613C158.852 32.1936 150.072 30.396 143.137 33.9476C140.293 35.4044 140.939 35.3301 141.956 30.7448C144.391 19.7669 135.597 6.93489 121.252 6.77984L121.254 6.78145ZM34.6187 58.0337C32.0447 58.0402 27.3459 57.1454 28.359 56.4089C28.7194 56.1473 29.0829 55.8679 29.4901 55.7064C41.7606 50.8126 45.624 51.5588 44.6884 48.6548C43.7529 45.7524 35.9259 38.4796 46.4755 34.1559C49.8477 32.7734 54.6338 31.9077 56.8749 31.9659C58.0658 31.9965 58.8801 31.1922 58.5037 29.8969C55.3237 18.9739 56.0444 13.0884 63.915 5.56204C65.8508 3.71274 68.6607 2.91487 71.3397 2.39965C74.0187 1.88443 74.2062 2.10732 78.724 2.54502C96.3913 4.2538 98.0184 27.9588 101.712 20.4307C103.126 17.551 105.986 14.0494 110.614 10.9517C113.286 9.16213 116.13 9.19604 118.862 8.98769C125.626 8.47247 130.367 9.60143 136.295 16.2266C139.422 19.7217 140.997 25.541 139.664 31.1228C139.201 33.0674 139.178 35.0959 138.53 37.0034C138.39 37.4169 138.57 37.777 138.918 38.0322C139.648 38.57 140.291 37.8739 140.631 37.6413C148.66 32.1435 160.712 33.0835 161.502 42.4318C161.631 43.9516 161.741 45.5005 161.269 47.0106C160.143 50.6204 169.508 48.5417 179.93 54.8681C180.284 55.0829 180.288 55.3123 179.93 55.4802C173.369 58.5732 158.046 55.9325 126.407 57.1648C101.143 58.1484 34.7092 58.0321 34.6187 58.0321V58.0337Z" fill="white"/>
<path d="M159.493 85.3121C154.185 85.2552 150.486 85.5361 145.581 91.0876C142.946 94.0696 143.109 94.9211 142.783 94.3417C136.012 82.3263 132.271 80.5399 123.07 80.0225C113.303 79.4734 107.322 89.119 107.353 94.8211C107.422 108.318 112.645 100.649 100.72 105.137C97.5429 106.333 94.9348 108.484 95.1369 111.878C95.2583 113.913 96.2338 115.279 97.5872 117.588C98.2695 118.752 98.8205 118.113 91.8818 120.474C90.9922 120.776 87.8609 121.876 86.716 122.492C84.6082 123.625 84.6714 124.969 85.6785 125.599C89.1839 127.789 96.0594 126.665 101.904 126.94C106.923 127.177 163.5 126.677 170.617 126.081C172.757 125.901 176.813 126.091 177.236 126.086C192.243 125.901 203.355 127.401 206.453 124.426C207.158 123.749 207.192 122.885 206.492 122.187C206.082 121.776 205.576 121.515 205.076 121.252C200.728 118.959 196.459 118.036 194.198 117.468C192.521 117.046 192.106 117.32 192.29 116.786C193.127 114.359 192.595 111.149 191.177 108.875C188.897 105.218 182.031 103.81 176.607 106.592C174.383 107.733 174.888 107.675 175.683 104.083C177.588 95.4841 170.711 85.4323 159.492 85.3109L159.493 85.3121ZM91.7403 125.46C89.7273 125.465 86.0526 124.764 86.8449 124.187C87.1267 123.982 87.411 123.763 87.7294 123.637C97.3256 119.803 100.347 120.388 99.6153 118.113C98.8837 115.839 92.7625 110.142 101.013 106.755C103.65 105.673 107.393 104.994 109.146 105.04C110.077 105.064 110.714 104.434 110.42 103.419C107.933 94.8629 108.496 90.2526 114.651 84.3569C116.165 82.9083 118.363 82.2833 120.458 81.8797C122.553 81.4761 122.7 81.6507 126.233 81.9936C140.05 83.3321 141.322 101.901 144.211 96.0041C145.316 93.7483 147.553 91.0054 151.172 88.5788C153.262 87.177 155.486 87.2036 157.623 87.0404C162.913 86.6368 166.62 87.5211 171.257 92.7108C173.702 95.4487 174.934 100.007 173.891 104.38C173.529 105.903 173.511 107.492 173.004 108.986C172.894 109.31 173.036 109.592 173.308 109.792C173.879 110.213 174.382 109.668 174.647 109.486C180.926 105.179 190.352 105.915 190.97 113.238C191.071 114.429 191.157 115.642 190.788 116.825C189.907 119.653 197.231 118.024 205.382 122.98C205.658 123.148 205.661 123.328 205.382 123.46C200.25 125.882 188.267 123.814 163.523 124.779C143.766 125.55 91.811 125.458 91.7403 125.458V125.46Z" fill="white"/>
<path d="M47.6269 89.3907C44.2329 89.3544 41.8681 89.5337 38.7318 93.0772C37.0474 94.9806 37.1516 95.5241 36.9431 95.1542C32.6144 87.4849 30.2222 86.3446 24.3398 86.0143C18.0955 85.6639 14.2716 91.8207 14.291 95.4603C14.3355 104.075 17.6746 99.1799 10.0503 102.045C8.01926 102.808 6.35174 104.181 6.481 106.348C6.55856 107.646 7.18227 108.518 8.04753 109.992C8.4838 110.735 8.83605 110.327 4.39983 111.834C3.83106 112.027 1.82907 112.729 1.09711 113.122C-0.250481 113.846 -0.210083 114.704 0.433815 115.106C2.67495 116.504 7.07077 115.786 10.8073 115.962C14.0163 116.113 50.1888 115.794 54.7389 115.413C56.1067 115.299 58.7001 115.42 58.9707 115.417C68.5654 115.299 75.6694 116.256 77.6504 114.357C78.1012 113.925 78.123 113.373 77.6754 112.928C77.4128 112.665 77.0897 112.499 76.7697 112.331C73.9897 110.868 71.2606 110.278 69.8153 109.916C68.7432 109.647 68.4774 109.821 68.5953 109.48C69.1302 107.931 68.79 105.883 67.8836 104.431C66.4261 102.097 62.0359 101.198 58.5684 102.974C57.1465 103.702 57.4696 103.665 57.9778 101.372C59.1953 95.8835 54.7987 89.4674 47.6261 89.3899L47.6269 89.3907ZM4.30935 115.017C3.02235 115.02 0.672958 114.573 1.17952 114.204C1.35968 114.074 1.54146 113.934 1.74505 113.853C7.8803 111.406 9.812 111.779 9.34422 110.327C8.87644 108.876 4.96294 105.24 10.2378 103.078C11.9239 102.387 14.3169 101.954 15.4375 101.983C16.0329 101.998 16.4401 101.596 16.2518 100.948C14.6619 95.487 15.0222 92.5442 18.9575 88.781C19.9254 87.8564 21.3303 87.4574 22.6698 87.1998C24.0094 86.9422 24.1031 87.0537 26.362 87.2725C35.1956 88.1269 36.0092 99.9794 37.8561 96.2154C38.563 94.7755 39.993 93.0247 42.3068 91.4758C43.6431 90.5811 45.065 90.598 46.4312 90.4938C49.8131 90.2362 52.1835 90.8007 55.1477 94.1133C56.711 95.8609 57.4987 98.7705 56.8322 101.561C56.6003 102.534 56.589 103.548 56.265 104.502C56.1948 104.708 56.2852 104.889 56.459 105.016C56.8241 105.285 57.1457 104.937 57.3153 104.821C61.3298 102.072 67.356 102.542 67.7511 107.216C67.8157 107.976 67.8706 108.75 67.6347 109.505C67.0716 111.31 71.7542 110.271 76.9652 113.434C77.1422 113.541 77.1438 113.656 76.9652 113.74C73.6843 115.287 66.023 113.966 50.2033 114.582C37.5717 115.074 4.35459 115.016 4.30935 115.016V115.017Z" fill="white"/>
</svg>
