<svg width="81" height="64" viewBox="0 0 81 64" fill="none" xmlns="http://www.w3.org/2000/svg">
<path fill-rule="evenodd" clip-rule="evenodd" d="M43.6754 2.03004C43.5217 0.868461 42.5313 0 41.3596 0C40.1876 0 39.1972 0.868298 39.0437 2.03004L39.0411 2.04873L39.0304 2.12602C39.0201 2.19662 39.0042 2.30456 38.982 2.44572C38.9379 2.72821 38.8692 3.14272 38.7729 3.65631C38.5798 4.68618 38.2789 6.1006 37.8479 7.64049C36.9509 10.8473 35.6171 14.1187 33.8679 15.8679C32.1187 17.6171 28.8473 18.9509 25.6405 19.8479C24.1006 20.2789 22.6862 20.5798 21.6563 20.7729C21.1427 20.8692 20.7282 20.9379 20.4457 20.982C20.3046 21.0042 20.1966 21.0201 20.126 21.0304L20.0487 21.0411L20.0321 21.0435C20.0319 21.0435 20.0323 21.0435 20.0321 21.0435C20.032 21.0435 20.0298 21.0437 20.0297 21.0437C18.8682 21.1974 18 22.1878 18 23.3596C18 24.5315 18.8683 25.5219 20.03 25.6754L20.0487 25.678L20.126 25.6887C20.1966 25.699 20.3046 25.7149 20.4457 25.7371C20.7282 25.7812 21.1427 25.8499 21.6563 25.9462C22.6862 26.1393 24.1006 26.4402 25.6405 26.8712C28.8473 27.7682 32.1187 29.102 33.8679 30.8512C35.6171 32.6004 36.9509 35.8719 37.8479 39.0787C38.2789 40.6185 38.5798 42.0329 38.7729 43.0629C38.8692 43.5763 38.9379 43.9909 38.982 44.2734C39.0042 44.4144 39.0201 44.5224 39.0304 44.5931L39.0411 44.6705L39.0435 44.6871C39.0435 44.6868 39.0435 44.6873 39.0435 44.6871C39.1969 45.8487 40.1876 46.7191 41.3596 46.7191C42.5315 46.7191 43.5219 45.8508 43.6754 44.6892L43.678 44.6705L43.6887 44.5931C43.699 44.5224 43.7149 44.4144 43.7371 44.2734C43.7812 43.9909 43.8499 43.5763 43.9462 43.0629C44.1393 42.0329 44.4402 40.6185 44.8712 39.0787C45.7682 35.8719 47.102 32.6004 48.8512 30.8512C50.6004 29.102 53.8719 27.7682 57.0787 26.8712C58.6185 26.4402 60.0329 26.1393 61.0629 25.9462C61.5763 25.8499 61.9909 25.7812 62.2734 25.7371C62.4144 25.7149 62.5224 25.699 62.5931 25.6887L62.6705 25.678L62.6871 25.6757C62.6868 25.6757 62.6873 25.6757 62.6871 25.6757C63.8487 25.5222 64.7191 24.5315 64.7191 23.3596C64.7191 22.1876 63.8508 21.1972 62.6892 21.0437L62.6705 21.0411L62.5931 21.0304C62.5224 21.0201 62.4144 21.0042 62.2734 20.982C61.9909 20.9379 61.5763 20.8692 61.0629 20.7729C60.0329 20.5798 58.6185 20.2789 57.0787 19.8479C53.8719 18.9509 50.6004 17.6171 48.8512 15.8679C47.102 14.1187 45.7682 10.8473 44.8712 7.64049C44.4402 6.1006 44.1393 4.68618 43.9462 3.65631C43.8499 3.14272 43.7812 2.72821 43.7371 2.44572C43.7149 2.30456 43.699 2.19662 43.6887 2.12602L43.678 2.04873L43.6754 2.03004ZM52.7408 23.3596C50.153 22.4083 47.4379 21.0617 45.5477 19.1714C43.6574 17.2812 42.3108 14.5662 41.3596 11.9782C40.4083 14.5662 39.0617 17.2812 37.1714 19.1714C35.2812 21.0617 32.5662 22.4083 29.9782 23.3596C32.5662 24.3108 35.2812 25.6574 37.1714 27.5477C39.0617 29.4379 40.4083 32.153 41.3596 34.7408C42.3108 32.153 43.6574 29.4379 45.5477 27.5477C47.4379 25.6574 50.153 24.3108 52.7408 23.3596Z" fill="black"/>
<path fill-rule="evenodd" clip-rule="evenodd" d="M66.3332 31.8531C66.2261 31.0435 65.5358 30.4382 64.7191 30.4382C63.9023 30.4382 63.212 31.0434 63.105 31.8531L63.1033 31.8661L63.0958 31.92C63.0886 31.9692 63.0775 32.0444 63.0621 32.1428C63.0313 32.3397 62.9834 32.6286 62.9163 32.9866C62.7817 33.7044 62.572 34.6902 62.2716 35.7634C61.6464 37.9985 60.7168 40.2785 59.4977 41.4977C58.2785 42.7168 55.9985 43.6464 53.7634 44.2716C52.6902 44.572 51.7044 44.7817 50.9866 44.9163C50.6286 44.9834 50.3397 45.0313 50.1428 45.0621C50.0444 45.0775 49.9692 45.0886 49.92 45.0958L49.8661 45.1033L49.8545 45.1049C49.8544 45.1049 49.8547 45.1049 49.8545 45.1049C49.8545 45.1049 49.853 45.105 49.8529 45.105C49.0433 45.2122 48.4382 45.9025 48.4382 46.7191C48.4382 47.5359 49.0434 48.2263 49.8531 48.3332L49.8661 48.335L49.92 48.3425C49.9692 48.3497 50.0444 48.3607 50.1428 48.3762C50.3397 48.407 50.6286 48.4548 50.9866 48.5219C51.7044 48.6566 52.6902 48.8663 53.7634 49.1666C55.9985 49.7918 58.2785 50.7215 59.4977 51.9406C60.7168 53.1597 61.6464 55.4398 62.2716 57.6749C62.572 58.7481 62.7817 59.7339 62.9163 60.4517C62.9834 60.8096 63.0313 61.0986 63.0621 61.2954C63.0775 61.3938 63.0886 61.469 63.0958 61.5183L63.1033 61.5722L63.1049 61.5838C63.1049 61.5836 63.1049 61.5839 63.1049 61.5838C63.2118 62.3934 63.9023 63 64.7191 63C65.5359 63 66.2263 62.3949 66.3332 61.5852L66.335 61.5722L66.3425 61.5183C66.3497 61.469 66.3607 61.3938 66.3762 61.2954C66.407 61.0986 66.4548 60.8096 66.5219 60.4517C66.6566 59.7339 66.8663 58.7481 67.1666 57.6749C67.7918 55.4398 68.7215 53.1597 69.9406 51.9406C71.1597 50.7215 73.4398 49.7918 75.6749 49.1666C76.7481 48.8663 77.7339 48.6566 78.4517 48.5219C78.8096 48.4548 79.0986 48.407 79.2954 48.3762C79.3938 48.3607 79.469 48.3497 79.5183 48.3425L79.5722 48.335L79.5838 48.3334C79.5836 48.3334 79.5839 48.3334 79.5838 48.3334C80.3934 48.2264 81 47.5359 81 46.7191C81 45.9023 80.3949 45.212 79.5852 45.105L79.5722 45.1033L79.5183 45.0958C79.469 45.0886 79.3938 45.0775 79.2954 45.0621C79.0986 45.0313 78.8096 44.9834 78.4517 44.9163C77.7339 44.7817 76.7481 44.572 75.6749 44.2716C73.4398 43.6464 71.1597 42.7168 69.9406 41.4977C68.7215 40.2785 67.7918 37.9985 67.1666 35.7634C66.8663 34.6902 66.6566 33.7044 66.5219 32.9866C66.4548 32.6286 66.407 32.3397 66.3762 32.1428C66.3607 32.0444 66.3497 31.9692 66.3425 31.92L66.335 31.8661L66.3332 31.8531ZM72.6515 46.7191C70.8479 46.0562 68.9556 45.1176 67.6381 43.8001C66.3207 42.4827 65.3821 40.5904 64.7191 38.7867C64.0562 40.5904 63.1176 42.4827 61.8001 43.8001C60.4827 45.1176 58.5904 46.0562 56.7867 46.7191C58.5904 47.3821 60.4827 48.3207 61.8001 49.6381C63.1176 50.9556 64.0562 52.8479 64.7191 54.6515C65.3821 52.8479 66.3207 50.9556 67.6381 49.6381C68.9556 48.3207 70.8479 47.3821 72.6515 46.7191Z" fill="black"/>
<path fill-rule="evenodd" clip-rule="evenodd" d="M17.895 32.4149C17.7879 31.6053 17.0975 31 16.2809 31C15.4641 31 14.7738 31.6052 14.6668 32.4149L14.665 32.4279L14.6575 32.4818C14.6504 32.531 14.6393 32.6062 14.6238 32.7046C14.5931 32.9015 14.5452 33.1904 14.4781 33.5483C14.3435 34.2661 14.1338 35.2519 13.8334 36.3252C13.2082 38.5602 12.2786 40.8403 11.0594 42.0594C9.84031 43.2786 7.56025 44.2082 5.32519 44.8334C4.25194 45.1338 3.26613 45.3435 2.54834 45.4781C2.19038 45.5452 1.90148 45.5931 1.70459 45.6238C1.60621 45.6393 1.53097 45.6504 1.48177 45.6575L1.4279 45.665L1.41631 45.6666C1.41616 45.6666 1.41645 45.6666 1.41631 45.6666C1.41623 45.6666 1.41473 45.6668 1.41466 45.6668C0.60508 45.7739 0 46.4642 0 47.2809C0 48.0977 0.605177 48.788 1.41488 48.895L1.4279 48.8968L1.48177 48.9043C1.53097 48.9114 1.60621 48.9225 1.70459 48.938C1.90148 48.9687 2.19038 49.0166 2.54834 49.0837C3.26613 49.2183 4.25194 49.428 5.32519 49.7284C7.56025 50.3536 9.84031 51.2832 11.0594 52.5023C12.2786 53.7215 13.2082 56.0016 13.8334 58.2366C14.1338 59.3099 14.3435 60.2957 14.4781 61.0135C14.5452 61.3714 14.5931 61.6604 14.6238 61.8572C14.6393 61.9555 14.6504 62.0307 14.6575 62.0801L14.665 62.134L14.6666 62.1455C14.6666 62.1454 14.6666 62.1457 14.6666 62.1455C14.7736 62.9552 15.4641 63.5618 16.2809 63.5618C17.0977 63.5618 17.788 62.9566 17.895 62.147L17.8968 62.134L17.9043 62.0801C17.9114 62.0307 17.9225 61.9555 17.938 61.8572C17.9687 61.6604 18.0166 61.3714 18.0837 61.0135C18.2183 60.2957 18.428 59.3099 18.7284 58.2366C19.3536 56.0016 20.2832 53.7215 21.5023 52.5023C22.7215 51.2832 25.0016 50.3536 27.2366 49.7284C28.3099 49.428 29.2957 49.2183 30.0135 49.0837C30.3714 49.0166 30.6604 48.9687 30.8572 48.938C30.9555 48.9225 31.0307 48.9114 31.0801 48.9043L31.134 48.8968L31.1455 48.8951C31.1454 48.8951 31.1457 48.8951 31.1455 48.8951C31.9552 48.7882 32.5618 48.0977 32.5618 47.2809C32.5618 46.4641 31.9566 45.7738 31.147 45.6668L31.134 45.665L31.0801 45.6575C31.0307 45.6504 30.9555 45.6393 30.8572 45.6238C30.6604 45.5931 30.3714 45.5452 30.0135 45.4781C29.2957 45.3435 28.3099 45.1338 27.2366 44.8334C25.0016 44.2082 22.7215 43.2786 21.5023 42.0594C20.2832 40.8403 19.3536 38.5602 18.7284 36.3252C18.428 35.2519 18.2183 34.2661 18.0837 33.5483C18.0166 33.1904 17.9687 32.9015 17.938 32.7046C17.9225 32.6062 17.9114 32.531 17.9043 32.4818L17.8968 32.4279L17.895 32.4149ZM24.2133 47.2809C22.4097 46.6179 20.5174 45.6793 19.1999 44.3619C17.8825 43.0445 16.9439 41.1522 16.2809 39.3485C15.6179 41.1522 14.6793 43.0445 13.3619 44.3619C12.0445 45.6793 10.1522 46.6179 8.34845 47.2809C10.1522 47.9439 12.0445 48.8825 13.3619 50.1999C14.6793 51.5174 15.6179 53.4097 16.2809 55.2133C16.9439 53.4097 17.8825 51.5174 19.1999 50.1999C20.5174 48.8825 22.4097 47.9439 24.2133 47.2809Z" fill="black"/>
</svg>
