<svg width="89" height="89" viewBox="0 0 89 89" fill="none" xmlns="http://www.w3.org/2000/svg">
<path fill-rule="evenodd" clip-rule="evenodd" d="M36.2716 2.86783C36.0545 1.22687 34.6553 0 33 0C31.3444 0 29.9452 1.22664 29.7284 2.86783L29.7247 2.89423L29.7096 3.00343C29.695 3.10316 29.6726 3.25565 29.6413 3.45507C29.5789 3.85414 29.4819 4.43972 29.3459 5.16526C29.073 6.62016 28.648 8.61831 28.0391 10.7937C26.7719 15.324 24.8876 19.9455 22.4165 22.4165C19.9455 24.8876 15.324 26.7719 10.7937 28.0391C8.61831 28.648 6.62016 29.073 5.16526 29.3459C4.43972 29.4819 3.85414 29.5789 3.45507 29.6413C3.25565 29.6726 3.10316 29.695 3.00343 29.7096L2.89423 29.7247L2.87074 29.7281C2.87044 29.7281 2.87103 29.7281 2.87074 29.7281C2.87057 29.7281 2.86754 29.7284 2.8674 29.7284C1.22645 29.9455 0 31.3447 0 33C0 34.6556 1.22664 36.0548 2.86783 36.2716L2.89423 36.2752L3.00343 36.2904C3.10316 36.305 3.25565 36.3274 3.45507 36.3587C3.85414 36.4211 4.43972 36.5181 5.16526 36.6541C6.62016 36.927 8.61831 37.352 10.7937 37.9609C15.324 39.2281 19.9455 41.1124 22.4165 43.5834C24.8876 46.0545 26.7719 50.6761 28.0391 55.2064C28.648 57.3817 29.073 59.3799 29.3459 60.8348C29.4819 61.5602 29.5789 62.1459 29.6413 62.5449C29.6726 62.7442 29.695 62.8967 29.7096 62.9967L29.7247 63.1059L29.7281 63.1293C29.7281 63.129 29.7281 63.1297 29.7281 63.1293C29.9449 64.7704 31.3444 66 33 66C34.6556 66 36.0548 64.7734 36.2716 63.1323L36.2752 63.1059L36.2904 62.9967C36.305 62.8967 36.3274 62.7442 36.3587 62.5449C36.4211 62.1459 36.5181 61.5602 36.6541 60.8348C36.927 59.3799 37.352 57.3817 37.9609 55.2064C39.2281 50.6761 41.1124 46.0545 43.5834 43.5834C46.0545 41.1124 50.6761 39.2281 55.2064 37.9609C57.3817 37.352 59.3799 36.927 60.8348 36.6541C61.5602 36.5181 62.1459 36.4211 62.5449 36.3587C62.7442 36.3274 62.8967 36.305 62.9967 36.2904L63.1059 36.2752L63.1293 36.2719C63.129 36.2719 63.1297 36.2719 63.1293 36.2719C64.7704 36.0551 66 34.6556 66 33C66 31.3444 64.7734 29.9452 63.1323 29.7284L63.1059 29.7247L62.9967 29.7096C62.8967 29.695 62.7442 29.6726 62.5449 29.6413C62.1459 29.5789 61.5602 29.4819 60.8348 29.3459C59.3799 29.073 57.3817 28.648 55.2064 28.0391C50.6761 26.7719 46.0545 24.8876 43.5834 22.4165C41.1124 19.9455 39.2281 15.324 37.9609 10.7937C37.352 8.61831 36.927 6.62016 36.6541 5.16526C36.5181 4.43972 36.4211 3.85414 36.3587 3.45507C36.3274 3.25565 36.305 3.10316 36.2904 3.00343L36.2752 2.89423L36.2716 2.86783ZM49.0783 33C45.4225 31.6562 41.5869 29.7538 38.9166 27.0834C36.2462 24.4131 34.3438 20.5776 33 16.9216C31.6562 20.5776 29.7538 24.4131 27.0834 27.0834C24.4131 29.7538 20.5776 31.6562 16.9216 33C20.5776 34.3438 24.4131 36.2462 27.0834 38.9166C29.7538 41.5869 31.6562 45.4225 33 49.0783C34.3438 45.4225 36.2462 41.5869 38.9166 38.9166C41.5869 36.2462 45.4225 34.3438 49.0783 33Z" fill="black"/>
<path fill-rule="evenodd" clip-rule="evenodd" d="M68.2802 44.9988C68.1289 43.8551 67.1537 43 66 43C64.8461 43 63.8709 43.8549 63.7198 44.9988L63.7172 45.0172L63.7067 45.0933C63.6966 45.1628 63.6809 45.2691 63.6591 45.4081C63.6156 45.6862 63.548 46.0944 63.4532 46.6C63.263 47.6141 62.9668 49.0067 62.5424 50.5229C61.6592 53.6803 60.3459 56.9014 58.6236 58.6236C56.9014 60.3459 53.6803 61.6592 50.5229 62.5424C49.0067 62.9668 47.6141 63.263 46.6 63.4532C46.0944 63.548 45.6862 63.6156 45.4081 63.6591C45.2691 63.6809 45.1628 63.6966 45.0933 63.7067L45.0172 63.7172L45.0008 63.7195C45.0006 63.7195 45.001 63.7195 45.0008 63.7195C45.0007 63.7195 44.9986 63.7198 44.9985 63.7198C43.8548 63.8711 43 64.8463 43 66C43 67.1539 43.8549 68.1291 44.9988 68.2802L45.0172 68.2828L45.0933 68.2933C45.1628 68.3034 45.2691 68.3191 45.4081 68.3409C45.6862 68.3844 46.0944 68.452 46.6 68.5468C47.6141 68.737 49.0067 69.0332 50.5229 69.4576C53.6803 70.3408 56.9014 71.6541 58.6236 73.3763C60.3459 75.0986 61.6592 78.3197 62.5424 81.4772C62.9668 82.9933 63.263 84.386 63.4532 85.4C63.548 85.9056 63.6156 86.3138 63.6591 86.5919C63.6809 86.7308 63.6966 86.8371 63.7067 86.9068L63.7172 86.9829L63.7195 86.9992C63.7195 86.999 63.7195 86.9995 63.7195 86.9992C63.8707 88.143 64.8461 89 66 89C67.1539 89 68.1291 88.1451 68.2802 87.0013L68.2828 86.9829L68.2933 86.9068C68.3034 86.8371 68.3191 86.7308 68.3409 86.5919C68.3844 86.3138 68.452 85.9056 68.5468 85.4C68.737 84.386 69.0332 82.9933 69.4576 81.4772C70.3408 78.3197 71.6541 75.0986 73.3763 73.3763C75.0986 71.6541 78.3197 70.3408 81.4772 69.4576C82.9933 69.0332 84.386 68.737 85.4 68.5468C85.9056 68.452 86.3138 68.3844 86.5919 68.3409C86.7308 68.3191 86.8371 68.3034 86.9068 68.2933L86.9829 68.2828L86.9992 68.2804C86.999 68.2804 86.9995 68.2804 86.9992 68.2804C88.143 68.1293 89 67.1539 89 66C89 64.8461 88.1451 63.8709 87.0013 63.7198L86.9829 63.7172L86.9068 63.7067C86.8371 63.6966 86.7308 63.6809 86.5919 63.6591C86.3138 63.6156 85.9056 63.548 85.4 63.4532C84.386 63.263 82.9933 62.9668 81.4772 62.5424C78.3197 61.6592 75.0986 60.3459 73.3763 58.6236C71.6541 56.9014 70.3408 53.6803 69.4576 50.5229C69.0332 49.0067 68.737 47.6141 68.5468 46.6C68.452 46.0944 68.3844 45.6862 68.3409 45.4081C68.3191 45.2691 68.3034 45.1628 68.2933 45.0933L68.2828 45.0172L68.2802 44.9988ZM77.2061 66C74.6581 65.0634 71.9848 63.7375 70.1237 61.8763C68.2625 60.0152 66.9366 57.342 66 54.7938C65.0634 57.342 63.7375 60.0152 61.8763 61.8763C60.0152 63.7375 57.342 65.0634 54.7938 66C57.342 66.9366 60.0152 68.2625 61.8763 70.1237C63.7375 71.9848 65.0634 74.6581 66 77.2061C66.9366 74.6581 68.2625 71.9848 70.1237 70.1237C71.9848 68.2625 74.6581 66.9366 77.2061 66Z" fill="black"/>
</svg>
